<?xml version="1.0" encoding="utf-8"?>
<!-- Generator: Adobe Illustrator 24.2.3, SVG Export Plug-In . SVG Version: 6.00 Build 0)  -->
<svg version="1.1" id="Layer_1" xmlns="http://www.w3.org/2000/svg" xmlns:xlink="http://www.w3.org/1999/xlink" x="0px" y="0px"
	 viewBox="0 0 356.9 402.4" style="enable-background:new 0 0 356.9 402.4;" xml:space="preserve">
<style type="text/css">
	.st0{fill:#201F1E;}
	.st1{fill:#F9F9F9;}
	.st2{fill:#DDDEDE;}
</style>
<g>
	<path class="st0" d="M203.7,317.5c2.4,7.6,6.5,14.2,11.2,20.4c10,13,22.1,24,33.6,35.5c9.1,9.1,18.2,18,27.3,27.1
		c0.5,0.5,0.9,1.1,1.6,1.9c-66,0-131.7,0-198.1,0c3.5-3.6,6.6-6.8,9.8-10c14.9-15.2,30.7-29.5,45.1-45.2
		c7.5-8.2,14.2-17.1,18.5-27.5c0.2-0.6,0.4-1.2,0.6-1.8c0-0.1-0.2-0.3-0.4-0.6c-5.5,4.4-11.2,8.4-17.5,11.6
		c-18.9,9.6-38.6,13.2-59.6,9.2c-22.4-4.3-40.9-15-55.4-32.6C9.8,292.7,3.6,278.1,1.2,261.9c-2.2-14.4-1.2-28.5,2.5-42.6
		c4.7-18,12.6-34.5,22.1-50.4c11.6-19.7,25.5-37.8,40.2-55.2c15.7-18.5,32.4-36,49.6-53.1c20.1-20.1,41.3-39.2,61.2-59.6
		c1.1-1.2,2.1-1.4,3.4-0.1c21.3,21.6,43.8,41.9,65.1,63.5c15.1,15.3,29.9,30.9,43.9,47.3c12.2,14.4,23.9,29.1,34.4,44.8
		c9.9,14.9,18.6,30.4,25,47.2c6.7,17.5,10,35.6,7.9,54.3c-1.8,15.5-7,29.8-16.1,42.7c-7.8,11.1-17.5,20-29.3,26.6
		c-18.7,10.5-38.8,14.8-60.2,11.4C233.2,335.8,217.6,328.7,203.7,317.5z M264,396.8c0.1-0.1,0.4-0.2,0.4-0.3c0-0.3-0.1-0.5-0.5-0.4
		c-11.6-11.4-23.4-22.7-34.8-34.3c-12.4-12.7-24.6-25.6-30.9-42.7c-1.3-3.4-1-6,1.2-7.6c2.4-1.7,4.6-1.4,7.5,1.1
		c9.2,7.7,19.3,13.8,30.8,17.4c14.5,4.5,29.3,5.5,44.3,2.4c17.3-3.6,32.1-11.5,44.5-23.9c16.3-16.3,24-36.4,25-59.2
		c0.6-13.8-2.2-27.1-6.6-40c-5.2-14.9-12.4-28.8-20.8-42.2c-14.7-23.5-32-45-50.6-65.5c-24-26.3-49.2-51.3-75.5-75.3
		c-6.1-6.1-12.1-12.3-18.2-18.4c-0.7-0.7-1.8-0.8-2.5,0c-1.4,1.8-3.6,3-4.7,5.2c-0.4,0.2-0.8,0.2-1.1,0.5
		c-16.3,15.8-32.8,31.4-48.9,47.3c-21.4,21.3-42.3,43.1-61.2,66.6c-17.7,22-33.8,44.9-45.1,70.9c-5,11.5-8.8,23.3-10.2,35.7
		c-1.9,16.7-0.2,33.2,6.8,48.8c8.9,19.8,23.4,34.1,42.9,43.3c14.1,6.6,29.1,9,44.6,7.5c9-0.8,17.8-2.9,26.1-6.6
		c8.7-3.8,16.7-8.7,23.9-15.1c2-1.8,4.4-2.4,6.8-0.7c2.4,1.7,2.9,3.9,1.9,6.6c-2.9,7.8-6.9,14.9-11.8,21.6
		c-8.8,11.8-19.4,21.9-29.8,32.2c-8.3,8.2-16.5,16.6-24.7,24.9c1.1,0.9,2.4,0.5,3.6,0.5c31.9,0,63.7,0,95.6,0c22.7,0,45.4,0,68.1,0
		C261.4,397.3,262.8,397.7,264,396.8z"/>
	<path class="st1" d="M197.9,26.4c26.2,24.1,51.5,49,75.5,75.3c18.6,20.4,35.9,42,50.6,65.5c8.4,13.3,15.7,27.3,20.8,42.2
		c4.5,12.9,7.2,26.2,6.6,40c-1,22.8-8.6,42.9-25,59.2c-12.4,12.4-27.2,20.3-44.5,23.9c-15.1,3.1-29.8,2.1-44.3-2.4
		c-11.4-3.5-21.6-9.6-30.8-17.4c-3-2.5-5.1-2.9-7.5-1.1c-2.2,1.6-2.5,4.1-1.2,7.6c6.4,17.1,18.5,30,30.9,42.7
		c11.4,11.6,23.2,22.9,34.8,34.3c0,0.2,0.1,0.5,0.1,0.7c-1.2,0.9-2.6,0.5-3.9,0.5c-22.7,0-45.4,0-68.1,0c-31.9,0-63.7,0-95.6,0
		c-1.2,0-2.5,0.4-3.6-0.5c8.2-8.3,16.4-16.7,24.7-24.9c10.4-10.3,21-20.4,29.8-32.2c4.9-6.6,9-13.8,11.8-21.6c1-2.6,0.4-4.9-1.9-6.6
		c-2.5-1.7-4.9-1-6.8,0.7c-7.1,6.4-15.2,11.2-23.9,15.1c-8.3,3.7-17.1,5.8-26.1,6.6c-15.5,1.4-30.5-0.9-44.6-7.5
		c-19.5-9.2-34-23.5-42.9-43.3c-7-15.6-8.7-32.1-6.8-48.8c1.4-12.4,5.2-24.2,10.2-35.7c11.3-26,27.4-48.9,45.1-70.9
		c18.9-23.6,39.8-45.4,61.2-66.6c16.1-16,32.6-31.6,48.9-47.3c0.3-0.3,0.7-0.4,1.1-0.5c0,2.8,0.1,5.6,0.1,8.4
		c-0.1,0.3-0.1,0.7-0.3,0.9c-5.8,5.6-11.6,11.2-17.5,16.7c-27.4,25.9-54.2,52.4-78.6,81.1c-15.9,18.7-30.9,38.1-43,59.6
		c-9.7,17-17.5,34.6-20.4,54.1c-1.5,9.8-1.2,19.6,0.7,29.2c2.3,11.8,7,22.8,14.5,32.5C43,315,62.7,325.3,86.8,327.4
		c8.5,0.7,16.9-0.4,25.3-2.4c14.8-3.7,27.2-11.2,38.1-21.7c4.8-4.6,8.3-10.1,12.2-15.4c1.4-1.9,3.2-4.2,5.8-3.2
		c2.4,1,2.1,3.8,2.1,6.1c0,20.6-6.6,38.8-19.3,54.9c-9,11.5-19.4,21.6-29.8,31.8c-4.2,4.1-8.3,8.2-13.1,13c2,0,3.1,0,4.1,0
		c21.4,0,42.7,0.1,64.1,0.1c0,0.8,0.1,1.6,0.2,3.3c0.6-1.7,0.9-2.5,1.2-3.4c1,0,2.1,0,3.1-0.1c1.6,2,3.3,1.8,5,0.1
		c1,0,2.1-0.1,3.1-0.1c18.9,0,37.7,0,56.6,0c0.7,0,1.8,0.6,2.1-0.5c0.2-0.8-0.8-1.1-1.3-1.6c-9.7-10-20-19.4-29.5-29.7
		c-7.4-8-14.3-16.4-19.7-25.9c-5.9-10.3-9.1-21.5-10.2-33.3c-0.3-3.7-0.3-7.5-0.3-11.2c0-1.4,0.4-3,1.9-3.6c1.6-0.7,2.9,0.4,3.9,1.3
		c1.9,1.6,3.2,3.7,4.6,5.7c8,12.1,18.7,21.1,31.7,27.5c8.4,4.2,17.3,6.7,26.6,7.8c8.1,1,16.1,0.8,23.9-0.7
		c9.9-1.9,19.3-5.4,27.8-10.9c11.2-7.1,20.2-16.2,26.9-27.8c6.7-11.5,9.9-24,10.7-37.2c1-16.6-3.5-32.2-9.6-47.4
		c-5-12.3-11.4-23.8-18.6-34.9c-15-23.3-32.5-44.5-51.1-64.9c-11.9-13.1-24.3-25.9-37-38.3c-10.2-10-20.5-19.8-30.8-29.7
		c-0.1-1.5,0-3-0.4-4.5C197,29.2,196.5,27.7,197.9,26.4z"/>
	<path class="st2" d="M172.7,21.6c0-2.8-0.1-5.6-0.1-8.4c1-2.2,3.2-3.3,4.7-5.2c0.6-0.8,1.7-0.7,2.5,0c6.1,6.1,12.1,12.2,18.2,18.4
		c-1.4,1.2-0.9,2.8-0.6,4.3c0.4,1.5,0.3,3,0.4,4.5c-1.5-1.5-3-3.1-4.5-4.6c-1-0.9-2-1.5-2.9,0.3c-0.8,1.6-2.4,2-4,1.8
		c-0.8-0.1-2,0.3-2.1-1.2c-0.1-1.5,1-1.3,1.9-1.3c2.7-0.1,2.8-1.6,2-3.6c-0.9-2.3-3.1-3.5-4.7-5.1c-0.8-0.8-1.4-0.1-1.6,1
		c-0.2,1.1,0.6,3-1.5,2.6c-2-0.3-0.9-2.2-1.1-3.4c-0.1-0.5,0.3-1.2,0.6-1.7c0.5-0.9,0.7-1.8-0.3-2.5c-1-0.7-2-0.4-2.7,0.5
		C175.6,19.3,174.3,20.7,172.7,21.6z"/>
	<path class="st2" d="M264,396.8c0-0.2-0.1-0.5-0.1-0.7c0.3-0.1,0.5,0.1,0.5,0.4C264.4,396.7,264.1,396.7,264,396.8z"/>
	<path class="st0" d="M172.7,21.6c1.6-1,2.9-2.3,4.1-3.7c0.8-0.9,1.7-1.3,2.7-0.5c0.9,0.7,0.7,1.6,0.3,2.5c-0.3,0.5-0.7,1.2-0.6,1.7
		c0.2,1.2-0.9,3,1.1,3.4c2.1,0.4,1.4-1.6,1.5-2.6c0.2-1,0.8-1.8,1.6-1c1.6,1.7,3.9,2.8,4.7,5.1c0.8,2,0.7,3.5-2,3.6
		c-0.9,0-2-0.2-1.9,1.3c0.1,1.5,1.2,1.1,2.1,1.2c1.7,0.2,3.2-0.2,4-1.8c0.9-1.8,1.9-1.2,2.9-0.3c1.6,1.5,3,3.1,4.5,4.6
		c10.3,9.9,20.7,19.7,30.8,29.7c12.7,12.4,25,25.2,37,38.3c18.6,20.4,36.1,41.7,51.1,64.9c7.2,11.1,13.6,22.7,18.6,34.9
		c6.2,15.2,10.6,30.8,9.6,47.4c-0.8,13.2-4.1,25.6-10.7,37.2c-6.7,11.5-15.7,20.7-26.9,27.8c-8.6,5.4-17.9,9-27.8,10.9
		c-7.9,1.5-15.8,1.7-23.9,0.7c-9.4-1.2-18.2-3.7-26.6-7.8c-12.9-6.4-23.7-15.4-31.7-27.5c-1.4-2.1-2.8-4.1-4.6-5.7
		c-1.1-0.9-2.4-2-3.9-1.3c-1.5,0.6-1.9,2.2-1.9,3.6c0,3.7-0.1,7.5,0.3,11.2c1.1,11.8,4.3,23,10.2,33.3c5.4,9.5,12.3,17.9,19.7,25.9
		c9.5,10.3,19.8,19.6,29.5,29.7c0.5,0.5,1.5,0.8,1.3,1.6c-0.3,1.1-1.4,0.5-2.1,0.5c-18.9,0-37.7,0-56.6,0c-1,0-2.1,0.1-3.1,0.1
		c-1.7-0.4-3.4-0.4-5-0.1c-1,0-2.1,0-3.1,0.1c-0.4,0-0.9,0-1.3,0c-21.4,0-42.7-0.1-64.1-0.1c-1.1,0-2.2,0-4.1,0
		c4.7-4.7,8.9-8.9,13.1-13c10.4-10.2,20.8-20.3,29.8-31.8c12.7-16.2,19.3-34.4,19.3-54.9c0-2.2,0.4-5.1-2.1-6.1
		c-2.6-1-4.4,1.3-5.8,3.2c-3.9,5.3-7.4,10.8-12.2,15.4c-10.9,10.5-23.3,18-38.1,21.7c-8.4,2.1-16.8,3.2-25.3,2.4
		C62.7,325.3,43,315,28,295.6c-7.5-9.7-12.1-20.7-14.5-32.5c-1.9-9.6-2.1-19.4-0.7-29.2c2.9-19.5,10.7-37.2,20.4-54.1
		c12.2-21.4,27.1-40.8,43-59.6c24.5-28.7,51.2-55.2,78.6-81.1c5.9-5.5,11.7-11.1,17.5-16.7C172.6,22.3,172.6,21.9,172.7,21.6z
		 M170.8,215.8c2.5-0.2,4.3-1.5,6.2-3c0.6-0.5,1.2-1.8,2.2-1c1.4,1.1,3.2,2.3,3.8,3.9c0.8,2.3,2.4,2.1,3.9,1.8
		c2.6-0.5,5.2-1.2,7.7-2.2c2-0.8,4.1-1.4,5.7-3c0.6-0.6,1.7-0.9,0.8-2.1c-0.7-0.9-1.3-1.5-2.5-0.8c-2.8,1.6-3.5,0.1-3.4-2.4
		c0-6.3,0-12.7,0-19c0-1.9-0.2-3.7-1.1-5.4c-0.7-1.8-1.8-3.3-3.4-4.5c-6.8-5.5-25.9-2.8-31,3.5c-2.1,2.6-2.4,5.4-2.1,8.5
		c0.1,1.2,0.5,1.6,1.7,1.1c3.2-1.4,6.4-2.7,9.6-4.1c1.5-0.6,3.2-1,2-3.4c-0.5-1-0.1-2.2,0.7-3.2c1.2-1.5,2.6-2.5,4.6-1.9
		c2.5,0.7,2.7,2.9,2.4,4.8c-0.3,2.1,1.6,4.8-1.3,6.4c-0.2,0.1-0.4,0.1-0.6,0.1c-5,1.8-10,3.7-15.1,5.5c-4.8,1.7-7.6,5.6-7.7,10.8
		c0,4.2,2.5,7.9,6.9,9.3C164.1,216.5,167.4,216.2,170.8,215.8z M144.7,135.3c3.1-2.6,6.2-5,9.2-7.5c6.7-5.5,13.6-10.9,18.3-18.4
		c5.6-9.1,4.1-19.6-3.7-24.5c-9.5-5.9-19.8-5.5-29.8-1.2c-7.2,3.1-10.7,9.3-12.6,16.5c-0.8,3.1-0.5,3.4,2.9,3.3
		c1.5,0,2.4-0.2,2.6-2.1c0.2-1.6,1.1-3.1,1.8-4.6c2.7-5.3,8.9-8.1,14-6.5c4.2,1.3,7,7.7,6.1,13.3c-1.4,8.5-5.4,15.7-10.2,22.7
		c-5.2,7.5-11.5,13.9-18.1,19.9c-1.8,1.7-1.3,3.4-1,5.1c0.2,1.4,1.9,0.7,2.9,0.7c15.1,0,30.2,0,45.3,0.1c2.4,0,2.9-0.8,3.1-2.9
		c0.5-6.4,1.4-12.8,2-19.2c0.1-1.1,1.6-3-0.9-3.1c-1.6-0.1-3.7-1-4.2,2.2c-0.5,3.1-2.4,6-6.1,6.1C159.2,135.4,152,135.3,144.7,135.3
		z M242,252c0-1.6,0-2.6,0-3.6c0-9.2,0-18.3,0-27.5c0-3-0.9-3.8-3.8-2.8c-5.5,1.8-11.1,3.4-16.9,3.8c-0.9,0.1-1.9,0.2-1.9,1.6
		c0,1.3,0.5,1.8,1.8,2c2.3,0.4,4.1,1.5,4.1,4.2c0,12.2,0,24.4,0,36.6c0,2.5-1.3,4.2-3.9,4.3c-1.9,0-1.9,1-1.9,2.4
		c-0.1,1.8,1.2,1.4,2.1,1.3c7.4-0.6,14.7-0.7,22.1,0c0.7,0.1,2.1,0.7,2.1-0.9c0-1,0.8-2.4-1.2-2.9c-1.4-0.4-2.4-1.9-2.4-3.6
		c0-3.3,0-6.6,0-9.9c1.9,0,1.9,1.6,2.6,2.5c5.9,8.4,11.7,16.9,17.4,25.4c1,1.6,2.1,3.7-1.2,4.5c-1.3,0.3-0.8,1.5-0.7,2.3
		c0.2,1.1,1.1,0.9,2,0.8c8.2-0.8,16.4-0.8,24.6,0c0.9,0.1,2,0.5,2-1.1c0-1.1,0.3-2.2-1.5-2.3c-1.9-0.2-3.4-1.4-4.5-3
		c-3.8-5.3-7.7-10.6-11.4-16c-4.7-6.7-9.4-13.4-14.1-20.2c-0.5-0.8-2-1.9-0.3-2.8c5-2.8,9.1-7.3,15.1-7.9c1.7-0.2,2.1-0.7,2-2.3
		c-0.1-1.8-1.3-1.3-2.2-1.2c-5.1,0.3-10.2,0.4-15.3,0c-1.1-0.1-2.6-0.8-3.1,1c-0.5,1.8,0.7,2.3,2.1,2.8c2,0.6,2,2.1,0.6,3.1
		C251.7,245.7,247.1,248.6,242,252z M111.5,185.6c1.8-1.3,3.7-1.8,4.9-3.3c3.4-3.9,3.5-8.4,1.7-12.8c-1.7-4.2-5.7-5.4-9.8-6.1
		c-12.7-2.2-25.3,0-38,0c-1.5,0-2,0.6-2,2c0,1.3,0.4,1.7,1.7,1.9c3.7,0.6,5,2.1,5,5.9c0,10.8,0,21.7,0,32.5c0,3.8-1.1,5.2-4.9,6
		c-1.2,0.3-1.9,0.5-1.8,1.9c0.1,1.5,1,1.6,2.1,1.6c3.9,0,7.7,0.1,11.6,0c9-0.2,18.1,0.8,27.1-1.2c4.6-1,8.9-3,11.1-7.4
		C124.8,197.7,121.3,189.4,111.5,185.6z M218.5,111.9c0-7.8,0-15.6,0-23.4c0-7.3,0-7.2-7.3-7.4c-3-0.1-5.1,0.8-7.2,3
		c-2.2,2.5-5,4.5-7.9,6.4c-3.7,2.4-7.4,4.5-11.6,5.9c-0.7,0.2-2.3,0.2-2.1,1.7c0.3,2.9,2.1,4,4.9,2.8c1.9-0.8,3.9-1.5,5.6-2.5
		c2.2-1.3,3.1-1.3,3.1,1.7c-0.1,12.5,0,25-0.1,37.5c0,7.1-0.4,7.8-7.3,9.4c-2.4,0.6-1.8,2.1-1.9,3.6c-0.1,1.9,1.2,1.6,2.3,1.5
		c4.1-0.3,8.1-0.7,12.1-0.9c7.9-0.4,15.8,0.1,23.7,0.8c1.1,0.1,2.9,0.9,2.9-1.6c0-1.9,0.1-3.4-2.6-3.5c-6.3-0.3-6.8-3.5-6.8-8.5
		C218.5,129.6,218.5,120.8,218.5,111.9z M268.4,197.5c3.1,3.2,5.6,6.6,7.8,10.3c1.1,1.9,1.4,3.3-1.1,4c-1.5,0.4-1.1,1.6-1,2.5
		c0.2,1.2,1.2,0.8,2,0.7c8.1-0.8,16.2-0.8,24.3,0c1,0.1,2.2,0.5,2.3-1.2c0.1-1.4-0.4-2.1-1.8-2.4c-1.7-0.3-3.1-1.2-4.1-2.6
		c-4.4-6.1-8.8-12.1-13.1-18.3c-0.5-0.8-1.4-2-0.1-2.7c5.1-2.6,9.1-7.7,15.5-7.7c1.7,0,1.7-1,1.8-2.2c0.1-1.6-0.8-1.6-1.9-1.6
		c-5.5,0.3-11,0.3-16.5,0c-0.8,0-2.1-0.5-2,1.1c0,1.1-0.5,2.7,1.5,2.7c1,0,1.6,0.4,1.7,1.4c0,0.9-0.3,1.7-1.2,2.3
		c-3.9,2.5-7.8,5-11.6,7.5c-1.9,1.2-2.4,0.8-2.4-1.4c0.1-9.6,0-19.2,0.1-28.7c0-2.6-1-3.3-3.2-2.5c-5.6,2-11.4,3-17.1,4.2
		c-0.8,0.2-2.3-0.5-2.3,1.3c0,1.5,1.3,1.5,2.2,1.8c2.5,0.7,4,2.2,4,4.8c0,11.8,0.1,23.5,0,35.3c0,2.7-1.1,4.9-4.2,5.1
		c-1.7,0.1-2.1,0.9-1.9,2.4c0.2,2.1,1.6,1.2,2.6,1.1c7.2-0.7,14.3-0.7,21.5,0c0.8,0.1,2,0.9,2.3-0.6c0.2-1.1,0.7-2.4-1-3.1
		c-2.1-0.8-2.6-2.8-2.8-4.8C268.3,203.5,268.4,200.5,268.4,197.5z M101.5,258.1C101.5,258.1,101.5,258.1,101.5,258.1
		c-0.1,8.3-0.1,16.7-0.1,25c0,2.9,0,6-3.5,6.8c-3.9,0.9-4.7-2.5-5.9-5c-0.8-1.8-1.8-3.1-4-3.2c-3.3-0.1-5.3,1.7-5.8,5.1
		c-0.6,4,1.3,7.1,4.5,8.1c4.4,1.3,8.7,0.8,13-0.2c6-1.3,11.3-3.8,15.2-9.1c3.4-4.7,3.7-10,3.8-15.4c0.1-12.5,0-25,0-37.5
		c0-4.3,1-5.8,5-6.6c1.6-0.3,2.1-0.9,2-2.5c-0.2-1.8-1.4-1.2-2.3-1.2c-8.7,0.8-17.4,0.8-26.2,0c-1-0.1-2.2-0.4-2.3,1.3
		c-0.1,1.3,0.2,2,1.8,2.3c4.2,0.8,4.8,1.6,4.8,5.8C101.6,240.6,101.5,249.4,101.5,258.1z M152.3,270.3c1.5,1.6,2.7,3.1,4.8,3.9
		c5.8,2.4,10.9,0.7,15.9-2.3c0.9-0.5,2.2-1,1.5-2.6c-0.7-1.5-1.9-1-2.9-0.6c-1.6,0.6-2.7,0.5-2.9-1.4c-0.1-1.2-0.3-2.5-0.3-3.7
		c0-5.6,0.1-11.2,0-16.9c-0.1-6.5-4-11.2-10-11.9c-6.5-0.7-13-0.5-19.3,1.8c-5.3,2-9,7-8.3,11.7c0.2,1.5,0.5,2.4,2.3,1.6
		c2.2-1,4.4-1.6,6.7-2.5c2.8-1.1,6.1-1.6,5-6.4c-0.5-2,1.9-3.3,4.1-3.2c2.2,0,3.4,1.2,3.3,3.6c-0.1,1.3-0.2,2.7,0.1,4.1
		c0.5,2.9-1.2,3.6-3.5,4.4c-5.3,1.7-10.6,3.3-15.7,5.7c-4.1,1.9-5.8,5.6-5.3,11.5c0.3,3.5,2.8,6.3,6.8,7.4
		C141.1,276,147.3,275.6,152.3,270.3z M146.5,183.5c0-7.4,0-14.8,0-22.2c0-2.3-0.8-3.5-3.2-2.6c-5.8,2.1-11.8,3.2-17.7,4.5
		c-0.6,0.1-1.5-0.3-1.7,0.9c-0.1,1,0.4,1.6,1.3,1.8c4.9,1.1,5.2,4.6,4.9,8.6c-0.1,2.1,0,4.2,0,6.2c-0.2,8.6,0.4,17.3-0.3,25.9
		c-0.3,2.9-1.7,4.7-4.5,5c-1.8,0.2-1.3,1.3-1.3,2.2c-0.1,1.3,0.8,1.2,1.7,1.2c2.2-0.2,4.4-0.3,6.5-0.5c6.1-0.5,12.3-0.1,18.4,0.4
		c1,0.1,2,0.2,2.1-1.1c0.1-0.8,0.4-1.8-0.9-2c-4.9-0.6-5.3-4.2-5.3-8.1C146.4,197.1,146.5,190.3,146.5,183.5z M219.6,194.5
		c-0.3-3.7,0.7-7.7,2.1-11.5c0.8-2.3,2.1-4.6,5.1-4.9c3-0.3,3.8,1.9,4.8,4c1,2.1,2.3,3.9,4.4,5.1c2.6,1.3,5.1,1,7.4-0.4
		c1.7-1,2.7-2.6,2.4-4.7c-0.5-2.7-2.4-4.5-4.7-5.3c-4.6-1.4-9.3-2.4-14.1-1.7c-10.8,1.4-20.3,4.9-23.5,16.7
		c-2.2,8.1-0.7,15.7,6.9,20.8c7.5,5.1,15.8,4.9,24.2,2.5c4.1-1.2,7.3-3.7,10-6.9c0.7-0.9,0.8-1.5-0.1-2.3c-0.9-0.8-1.4-0.4-2.1,0.2
		c-0.7,0.6-1.3,1.4-1.9,2c-6.3,5.7-13.8,5.2-18.1-1.4C220,203.1,219.4,199.1,219.6,194.5z M193.2,253.6c-0.2-4.9,0.5-9.9,3.6-14.2
		c2.5-3.5,5.8-3.1,7.7,0.7c1,2,2,3.8,3.6,5.3c2.6,2.2,5.5,2,8.4,0.6c1.8-0.9,3-2.4,2.8-4.4c-0.3-2.8-2.1-4.7-4.8-5.5
		c-10.1-3.1-19.9-2.5-29.1,2.9c-11.6,6.8-12.3,25.4-2.6,32.2c3.3,2.3,7,3.6,10.8,4.4c7.8,1.6,19-1.4,24.1-8.1
		c0.5-0.7,1.6-1.3,0.5-2.2c-0.9-0.8-1.7-0.9-2.6,0.2c-1.5,1.8-3.4,3-5.4,4.1c-4.4,2.5-10.5,1.3-13.6-2.7
		C193.5,263,193.1,258.5,193.2,253.6z"/>
	<path class="st2" d="M180.8,390.5c1.7-0.3,3.4-0.3,5,0.1C184.1,392.2,182.4,392.4,180.8,390.5z"/>
	<path class="st2" d="M176.4,390.6c0.4,0,0.9,0,1.3,0c-0.3,0.8-0.6,1.7-1.2,3.4C176.5,392.2,176.4,391.4,176.4,390.6z"/>
	<path class="st1" d="M144.7,135.3c7.2,0,14.5,0.1,21.7-0.1c3.7-0.1,5.6-2.9,6.1-6.1c0.5-3.2,2.6-2.3,4.2-2.2c2.4,0.2,1,2,0.9,3.1
		c-0.6,6.4-1.5,12.8-2,19.2c-0.2,2.2-0.7,3-3.1,2.9c-15.1-0.1-30.2-0.1-45.3-0.1c-1,0-2.7,0.7-2.9-0.7c-0.2-1.6-0.8-3.4,1-5.1
		c6.7-6.1,13-12.5,18.1-19.9c4.8-6.9,8.7-14.2,10.2-22.7c0.9-5.6-1.9-12-6.1-13.3c-5.1-1.6-11.3,1.2-14,6.5c-0.7,1.5-1.6,3-1.8,4.6
		c-0.2,1.9-1.1,2.1-2.6,2.1c-3.4,0-3.7-0.2-2.9-3.3c1.9-7.2,5.4-13.5,12.6-16.5c10-4.3,20.4-4.8,29.8,1.2c7.9,4.9,9.3,15.4,3.7,24.5
		c-4.7,7.6-11.6,12.9-18.3,18.4C150.9,130.3,147.8,132.7,144.7,135.3z"/>
	<path class="st1" d="M242,252c5.1-3.4,9.7-6.3,14.2-9.5c1.5-1,1.5-2.5-0.6-3.1c-1.4-0.5-2.6-1-2.1-2.8c0.5-1.9,2-1.1,3.1-1
		c5.1,0.3,10.2,0.3,15.3,0c1-0.1,2.1-0.5,2.2,1.2c0.1,1.6-0.4,2.1-2,2.3c-6,0.6-10.2,5.1-15.1,7.9c-1.6,0.9-0.2,2,0.3,2.8
		c4.7,6.8,9.4,13.5,14.1,20.2c3.8,5.4,7.6,10.7,11.4,16c1.1,1.6,2.6,2.8,4.5,3c1.8,0.2,1.6,1.2,1.5,2.3c-0.1,1.5-1.1,1.1-2,1.1
		c-8.2-0.8-16.4-0.8-24.6,0c-0.9,0.1-1.8,0.3-2-0.8c-0.1-0.8-0.6-2,0.7-2.3c3.3-0.8,2.2-2.9,1.2-4.5c-5.7-8.5-11.5-17-17.4-25.4
		c-0.6-0.9-0.7-2.5-2.6-2.5c0,3.3,0,6.6,0,9.9c0,1.7,1,3.2,2.4,3.6c2,0.6,1.2,1.9,1.2,2.9c0,1.6-1.4,0.9-2.1,0.9
		c-7.4-0.6-14.7-0.6-22.1,0c-0.9,0.1-2.2,0.5-2.1-1.3c0.1-1.4,0-2.3,1.9-2.4c2.6,0,3.9-1.7,3.9-4.3c0-12.2,0-24.4,0-36.6
		c0-2.7-1.7-3.9-4.1-4.2c-1.3-0.2-1.8-0.7-1.8-2c0-1.3,1-1.5,1.9-1.6c5.8-0.4,11.4-2,16.9-3.8c2.9-0.9,3.7-0.2,3.8,2.8
		c0,9.2,0,18.3,0,27.5C242,249.3,242,250.3,242,252z"/>
	<path class="st1" d="M111.5,185.6c9.8,3.8,13.3,12,8.7,21c-2.3,4.5-6.5,6.4-11.1,7.4c-8.9,2-18,1-27.1,1.2c-3.8,0.1-7.7,0-11.6,0
		c-1.1,0-2-0.1-2.1-1.6c-0.1-1.4,0.6-1.7,1.8-1.9c3.8-0.9,4.9-2.3,4.9-6c0-10.8,0-21.7,0-32.5c0-3.7-1.3-5.3-5-5.9
		c-1.3-0.2-1.8-0.6-1.7-1.9c0-1.4,0.6-2,2-2c12.7,0,25.3-2.2,38,0c4,0.7,8.1,1.9,9.8,6.1c1.8,4.4,1.7,8.9-1.7,12.8
		C115.2,183.8,113.3,184.3,111.5,185.6z M92.1,197.4c0.3,2.9-0.5,6.3,0.6,9.7c0.8,2.5,2.6,4.1,5.2,4.1c2.4,0,4.4-1.4,5.2-3.6
		c1.6-4.5,2-9.1,0.6-13.7c-0.7-2.4-2.2-4.1-4.4-5.3c-2.1-1.1-4.6-1.2-6.6-0.4c-1.3,0.6-0.4,2.9-0.5,4.4
		C92,194,92.1,195.4,92.1,197.4z M102.2,175.7c0-5.3-2.5-9.1-6.6-9.8c-1.7-0.3-3.5-0.3-3.5,2.2c0,4.7,0,9.3,0,14
		c0,1.6,0.6,1.9,2.1,1.9C99.2,184.2,102.2,181.2,102.2,175.7z"/>
	<path class="st1" d="M218.5,111.9c0,8.9,0,17.7,0,26.6c0,5,0.5,8.2,6.8,8.5c2.7,0.1,2.6,1.7,2.6,3.5c0,2.4-1.7,1.7-2.9,1.6
		c-7.9-0.7-15.8-1.2-23.7-0.8c-4.1,0.2-8.1,0.6-12.1,0.9c-1.1,0.1-2.4,0.4-2.3-1.5c0.1-1.4-0.5-3,1.9-3.6c6.9-1.6,7.3-2.3,7.3-9.4
		c0-12.5-0.1-25,0.1-37.5c0-3-0.9-3-3.1-1.7c-1.8,1-3.7,1.7-5.6,2.5c-2.7,1.2-4.6,0.1-4.9-2.8c-0.2-1.6,1.4-1.5,2.1-1.7
		c4.2-1.4,7.9-3.5,11.6-5.9c2.9-1.8,5.6-3.9,7.9-6.4c2.1-2.3,4.2-3.1,7.2-3c7.3,0.2,7.3,0.1,7.3,7.4
		C218.5,96.3,218.5,104.1,218.5,111.9z"/>
	<path class="st1" d="M268.4,197.5c0,3-0.1,6,0,9c0.1,2,0.6,4,2.8,4.8c1.7,0.7,1.3,2,1,3.1c-0.3,1.5-1.5,0.6-2.3,0.6
		c-7.2-0.7-14.3-0.6-21.5,0c-1,0.1-2.4,1-2.6-1.1c-0.1-1.5,0.3-2.3,1.9-2.4c3.1-0.2,4.2-2.4,4.2-5.1c0.1-11.8,0.1-23.5,0-35.3
		c0-2.6-1.5-4.1-4-4.8c-0.9-0.2-2.2-0.3-2.2-1.8c0-1.8,1.5-1.1,2.3-1.3c5.8-1.2,11.6-2.2,17.1-4.2c2.2-0.8,3.2-0.1,3.2,2.5
		c-0.1,9.6,0,19.2-0.1,28.7c0,2.2,0.5,2.6,2.4,1.4c3.9-2.5,7.7-5.1,11.6-7.5c0.9-0.6,1.2-1.4,1.2-2.3c0-1-0.7-1.4-1.7-1.4
		c-2.1,0-1.5-1.6-1.5-2.7c0-1.6,1.2-1.1,2-1.1c5.5,0.3,11,0.3,16.5,0c1.2-0.1,2.1,0,1.9,1.6c-0.1,1.2-0.1,2.2-1.8,2.2
		c-6.4,0-10.4,5-15.5,7.7c-1.3,0.7-0.4,1.9,0.1,2.7c4.3,6.1,8.7,12.2,13.1,18.3c1,1.4,2.4,2.3,4.1,2.6c1.4,0.3,1.9,1,1.8,2.4
		c-0.2,1.6-1.3,1.3-2.3,1.2c-8.1-0.8-16.2-0.8-24.3,0c-0.8,0.1-1.8,0.5-2-0.7c-0.1-0.9-0.5-2.1,1-2.5c2.5-0.7,2.3-2,1.1-4
		C274,204.1,271.5,200.7,268.4,197.5z"/>
	<path class="st1" d="M101.5,258.1c0-8.7,0-17.5,0-26.2c0-4.2-0.6-5-4.8-5.8c-1.5-0.3-1.8-1-1.8-2.3c0.1-1.7,1.3-1.4,2.3-1.3
		c8.7,0.8,17.4,0.8,26.2,0c0.9-0.1,2.2-0.6,2.3,1.2c0.1,1.5-0.4,2.1-2,2.5c-3.9,0.8-5,2.2-5,6.6c0,12.5,0,25,0,37.5
		c0,5.4-0.3,10.7-3.8,15.4c-3.8,5.3-9.2,7.8-15.2,9.1c-4.2,0.9-8.6,1.4-13,0.2c-3.3-1-5.1-4-4.5-8.1c0.5-3.4,2.6-5.1,5.8-5.1
		c2.2,0,3.2,1.4,4,3.2c1.2,2.5,2,5.9,5.9,5c3.5-0.8,3.5-3.9,3.5-6.8C101.5,274.8,101.5,266.5,101.5,258.1
		C101.5,258.1,101.5,258.1,101.5,258.1z"/>
	<path class="st1" d="M152.3,270.3c-5.1,5.3-11.2,5.7-17.8,4c-4-1.1-6.5-3.8-6.8-7.4c-0.5-5.9,1.2-9.6,5.3-11.5
		c5-2.4,10.4-4,15.7-5.7c2.3-0.7,4-1.5,3.5-4.4c-0.2-1.3-0.1-2.7-0.1-4.1c0.1-2.3-1.1-3.5-3.3-3.6c-2.2,0-4.6,1.2-4.1,3.2
		c1.1,4.7-2.2,5.2-5,6.4c-2.2,0.9-4.5,1.6-6.7,2.5c-1.8,0.8-2.1-0.1-2.3-1.6c-0.6-4.7,3.1-9.7,8.3-11.7c6.3-2.4,12.8-2.6,19.3-1.8
		c6,0.7,9.9,5.4,10,11.9c0.1,5.6,0,11.2,0,16.9c0,1.2,0.1,2.5,0.3,3.7c0.2,1.9,1.3,2,2.9,1.4c1-0.4,2.3-0.9,2.9,0.6
		c0.7,1.6-0.7,2.1-1.5,2.6c-4.9,3-10.1,4.7-15.9,2.3C155.1,273.4,153.8,271.9,152.3,270.3z M152.1,259.8c0-2.1-0.1-4.2,0-6.2
		c0.2-2.6-1.1-2.5-2.8-1.6c-4.6,2.4-7.3,10.4-4.9,15.1c1.1,2.2,3.3,2.2,5.4,1.9c2-0.3,2.4-1.5,2.3-3.3
		C152,263.8,152.1,261.8,152.1,259.8z"/>
	<path class="st1" d="M146.5,183.5c0,6.8,0,13.5,0,20.3c0,3.8,0.4,7.4,5.3,8.1c1.2,0.2,0.9,1.2,0.9,2c-0.1,1.4-1.1,1.2-2.1,1.1
		c-6.1-0.5-12.2-1-18.4-0.4c-2.2,0.2-4.4,0.3-6.5,0.5c-0.9,0.1-1.8,0.1-1.7-1.2c0-0.9-0.5-2,1.3-2.2c2.8-0.3,4.2-2.1,4.5-5
		c0.8-8.6,0.1-17.3,0.3-25.9c0.1-2.1-0.1-4.2,0-6.2c0.3-4-0.1-7.6-4.9-8.6c-0.9-0.2-1.4-0.8-1.3-1.8c0.1-1.2,1.1-0.8,1.7-0.9
		c6-1.3,12-2.4,17.7-4.5c2.3-0.9,3.2,0.3,3.2,2.6C146.4,168.8,146.5,176.1,146.5,183.5z"/>
	<path class="st1" d="M219.6,194.5c-0.1,4.5,0.4,8.6,2.6,12.1c4.2,6.6,11.8,7.1,18.1,1.4c0.7-0.6,1.3-1.3,1.9-2
		c0.6-0.6,1.2-1,2.1-0.2c0.9,0.8,0.9,1.5,0.1,2.3c-2.7,3.2-6,5.8-10,6.9c-8.4,2.4-16.6,2.5-24.2-2.5c-7.6-5.1-9.1-12.7-6.9-20.8
		c3.2-11.8,12.7-15.3,23.5-16.7c4.9-0.7,9.6,0.4,14.1,1.7c2.4,0.7,4.3,2.5,4.7,5.3c0.4,2.1-0.7,3.7-2.4,4.7
		c-2.3,1.3-4.8,1.7-7.4,0.4c-2.2-1.1-3.4-3-4.4-5.1c-1-2-1.9-4.3-4.8-4c-3,0.3-4.2,2.6-5.1,4.9C220.3,186.8,219.2,190.8,219.6,194.5
		z"/>
	<path class="st1" d="M193.2,253.6c-0.1,4.9,0.3,9.4,3.4,13.2c3.2,4,9.2,5.2,13.6,2.7c2-1.1,3.9-2.4,5.4-4.1c0.9-1.1,1.7-1,2.6-0.2
		c1.1,1,0,1.6-0.5,2.2c-5.1,6.7-16.2,9.8-24.1,8.1c-3.8-0.8-7.5-2-10.8-4.4c-9.7-6.9-9-25.4,2.6-32.2c9.2-5.4,19-6,29.1-2.9
		c2.7,0.8,4.5,2.7,4.8,5.5c0.3,2-1,3.6-2.8,4.4c-2.9,1.4-5.8,1.6-8.4-0.6c-1.7-1.4-2.7-3.3-3.6-5.3c-1.9-3.8-5.2-4.1-7.7-0.7
		C193.7,243.7,193,248.7,193.2,253.6z"/>
	<path class="st1" d="M201.1,210.3c-0.7-0.9-1.3-1.5-2.5-0.8c-2.8,1.6-3.5,0.1-3.4-2.4c0-6.3,0-12.7,0-19c0-1.9-0.2-3.7-1.1-5.4
		c-0.7-1.8-1.8-3.3-3.4-4.5c-6.8-5.5-25.9-2.8-31,3.5c-2.1,2.6-2.4,5.4-2.1,8.5c0.1,1.2,0.5,1.6,1.7,1.1c3.2-1.4,6.4-2.7,9.6-4.1
		c1.5-0.6,3.2-1,2-3.4c-0.5-1-0.1-2.2,0.7-3.2c1.2-1.5,2.6-2.5,4.6-1.9c2.5,0.7,2.7,2.9,2.4,4.8c-0.3,2.1,1.6,4.8-1.3,6.4
		c-0.2,0.1-0.4,0.1-0.6,0.1c-5,1.8-10,3.7-15.1,5.5c-4.8,1.7-7.6,5.6-7.7,10.8c0,4.2,2.5,7.9,6.9,9.3c3.2,1,6.6,0.7,9.9,0.4
		c0.3-0.3,0.5-0.7,0.7-1c-0.2,0.4-0.4,0.7-0.7,1c2.5-0.2,4.3-1.5,6.2-3c0.6-0.5,1.2-1.8,2.2-1c1.4,1.1,3.2,2.3,3.8,3.9
		c0.8,2.3,2.4,2.1,3.9,1.8c2.6-0.5,5.2-1.2,7.7-2.2c2-0.8,4.1-1.4,5.7-3C200.8,211.8,202,211.4,201.1,210.3z M171.6,214.4
		c0.1-0.2,0.2-0.5,0.2-0.8C171.8,213.9,171.7,214.1,171.6,214.4z M178.4,205.7c-0.7,4.7-1.6,5.4-6.3,3.9c0,0.5,0,1.1,0,1.6
		c0,0.3,0,0.5,0,0.8c0-0.3,0-0.5,0-0.8c0-0.5,0-1.1,0-1.6c-0.2-0.2-0.4-0.4-0.6-0.6c-0.2-0.2-0.4-0.5-0.6-0.7
		c-1.3-5.8-0.7-11,4.3-15c0.2-1,0.8-1.2,1.6-1c1.3-0.2,2.1,0.2,2,1.8c-0.1,1-0.3,2,0.3,3C178.5,200,178.8,202.9,178.4,205.7z
		 M188.2,197.8c1.4,0,2.7,0.1,4,0.3L188.2,197.8z"/>
	<path class="st0" d="M92.1,197.4c0-2-0.1-3.4,0-4.9c0.1-1.5-0.8-3.8,0.5-4.4c2-0.9,4.5-0.8,6.6,0.4c2.2,1.1,3.7,2.8,4.4,5.3
		c1.4,4.7,1,9.3-0.6,13.7c-0.8,2.2-2.9,3.6-5.2,3.6c-2.6,0-4.3-1.6-5.2-4.1C91.6,203.7,92.4,200.3,92.1,197.4z"/>
	<path class="st0" d="M102.2,175.7c0,5.5-3,8.4-8.1,8.3c-1.4,0-2.1-0.3-2.1-1.9c0.1-4.7,0-9.3,0-14c0-2.6,1.8-2.5,3.5-2.2
		C99.7,166.6,102.2,170.4,102.2,175.7z"/>
	<path class="st0" d="M152.1,259.8c0,2-0.1,3.9,0,5.9c0.1,1.8-0.3,3-2.3,3.3c-2.1,0.3-4.2,0.3-5.4-1.9c-2.4-4.7,0.2-12.7,4.9-15.1
		c1.7-0.9,2.9-1,2.8,1.6C152,255.7,152.1,257.8,152.1,259.8z"/>
	<path class="st0" d="M179.1,197.2c-0.5,2.8-0.2,5.7-0.7,8.5c-0.7,4.7-1.6,5.4-6.3,3.9c-0.2-0.2-0.4-0.4-0.6-0.6
		c0-0.5-0.3-0.6-0.6-0.7c-1.3-5.8-0.7-11,4.3-15c0.8,0.2,1.3-0.3,1.6-1c1.3-0.2,2.1,0.2,2,1.8C178.7,195.2,178.5,196.2,179.1,197.2z
		"/>
	<path class="st2" d="M176.8,192.4c-0.4,0.6-0.8,1.1-1.6,1C175.3,192.4,175.9,192.1,176.8,192.4z"/>
	<path class="st2" d="M170.8,208.4c0.3,0.1,0.7,0.2,0.6,0.7C171.3,208.8,171,208.6,170.8,208.4z"/>
</g>
</svg>
