<?xml version="1.0" encoding="utf-8"?>
<!-- Generator: Adobe Illustrator 24.2.3, SVG Export Plug-In . SVG Version: 6.00 Build 0)  -->
<svg version="1.1" id="Layer_1" xmlns="http://www.w3.org/2000/svg" xmlns:xlink="http://www.w3.org/1999/xlink" x="0px" y="0px"
	 viewBox="0 0 312.8 312.4" style="enable-background:new 0 0 312.8 312.4;" xml:space="preserve">
<style type="text/css">
	.st0{fill:#030314;}
	.st1{fill:#343433;}
	.st2{fill:#3A7858;}
	.st3{fill:#FBF8E5;}
	.st4{fill:#F3EAB9;}
	.st5{fill:#EABB62;}
	.st6{fill:#CDA148;}
	.st7{fill:#E73F48;}
	.st8{fill:#F4EDD8;}
	.st9{fill:#B81D23;}
	.st10{fill:#E63841;}
	.st11{fill:#D5C8A7;}
	.st12{fill:#499871;}
	.st13{fill:#336C4E;}
	.st14{fill:#28553D;}
	.st15{fill:#997423;}
</style>
<g>
	<path class="st0" d="M149.5,1.6c1.1-0.1,2.2-0.4,3.1-0.9c0.9-0.1,1.7,0,2.5-0.5c0.8,0,1.7-0.1,2.5-0.1c1.2,0.1,2.3,0.1,3.5,0.2
		s2.3,0.6,3.5,0.4c1.5,0.7,3.2,0.9,4.8,1.2c0.4,0,0.8,0.1,1.2,0.1c0.8,0.6,1.7,0.8,2.6,0.8c1.1,0.4,2.3,0.6,3.4,0.5
		c0.7,0.6,1.6,0.7,2.5,0.9c3.6,0.6,7,1.9,10.6,2.2c1.3,0.7,2.8,0.9,4.3,1.1c2,0.5,4,0.9,6,1.4c0.1,0,0.3,0.1,0.4,0
		c1.1,0.4,2.2,1,3.5,0.7c0.8,0.6,1.7,0.5,2.6,0.6l0,0c0.2,0.1,0.3,0.2,0.5,0.3c3.1,0.7,6.1,1.3,9.1,2c2.3,0.5,4.6,1.1,6.9,1.6
		c1,0.3,2,0.5,3,0.8c1.5,0.3,2.9,0.6,4.4,0.9c3,1.5,6,3.2,8.6,5.4c0.5,1.4,1.8,2,2.7,2.9c0.1,0.1,0.2,0.3,0.4,0.4l0,0
		c0.1,0.6,0.4,1,0.9,1.3l0,0c1,2.2,2.1,4.3,3.1,6.5c0.3,1.2-0.2,2.7,1.3,3.5c3.2,0.4,6.1,1.5,9.1,2.6c0.7,0.6,1.4,1.2,2.2,1.7
		c0.6,0.5,1.2,0.9,1.7,1.4c0.5,0.6,1.1,1.1,1.6,1.7c0.5,0.7,0.9,1.4,1.4,2.2c0.8,1.2,1.2,2.8,2.2,3.9c0,0.3,0,0.6,0.1,0.8
		s0.2,0.3,0.3,0.5c0.5,0.2,1.1,0.4,1.6,0.6c1.2,0.4,2.3,0.8,3.5,1.2c0.8,0.6,1.7,1,2.7,1.1c0.9,0.5,1.9,0.9,2.9,1
		c0.8,0.6,1.7,0.8,2.7,1c0.8,0.5,1.7,1,2.6,1.1c1,0.2,1.9,0.9,3,0.8c0.8,0.3,1.7,0.6,2.6,0.5c3,1,6.2,0.5,9.1,1.5
		c1.9,1,3.5,2.4,5.7,2.8c2.4,0.9,4.5,2.3,6,4.4c0.6,0.7,1.1,1.5,1.7,2.2c0.3,1,0.6,2,1,3c0.2,1,0.3,2.1,0.5,3.1c0,0.1,0,0.3,0,0.4
		c-0.1,1-0.3,2.1-0.4,3.1c-0.3,1-0.7,2-1,3c-0.6,0.4-0.9,1-0.8,1.7c-0.9,0.3-0.8,1-0.9,1.7c-0.5,3-0.4,6.1-0.3,9.2
		c-0.1,1.5-0.2,2.9-0.3,4.4c-0.3,2.3-0.6,4.5-0.9,6.8c-0.3,0.9-0.5,1.9-0.8,2.8c-0.5,1.5-0.8,2.9,0.4,4.2c0.3,0.9,0.5,1.7,0.8,2.6
		c0.2,0.7,0.5,1.4,0.7,2.2c0.2,1.3,0.4,2.6,0.6,3.9c-0.2,1.1,0.3,2.1,0.5,3.1c0,1.3,0,2.5,0.1,3.8c0.1,1,0.2,2,0.3,3.1
		c0.1,1.4,0.1,2.9,0.2,4.3c0.2,1.5,0.1,3,0.6,4.5c0.3,1.9,0.8,3.6,1.8,5.2c0.3,1,0.5,2,0.8,3c-0.1,1.1-0.1,2.2-0.2,3.4
		c-0.3,1.8-0.6,3.5-1.7,5c-0.9,1.2-0.8,2.4,0,3.6c0.4,1.6,0.8,3.2,1.2,4.8c0.5,3.3,0.2,6.7,0.4,10.1c-0.2,1.4-0.7,2.8-0.6,4.3l0,0
		c-0.4,0.2-0.4,0.5-0.4,0.9c-0.6,1.7-1.2,3.4-1.8,5.1c-0.9,0.8-1.4,2-1.7,3.1c-1.5,2-2.9,4-4.4,6c-4,5.5-9.2,10.2-11.6,16.8
		c-0.3,0.7-0.6,1.5-0.5,2.3c-0.5,1.1-0.9,2.3-0.8,3.5c0,0.1,0,0.3-0.1,0.4c-0.1,0.2-0.2,0.3-0.3,0.5c0,1.2-0.1,2.3-0.1,3.5
		c0.1,2,0.2,4,0.4,6c-0.7,1.1-0.2,2.4-0.4,3.6c-0.6,0.6-0.8,1.3-0.8,2.1c-0.7,0.8-1.4,1.6-1.7,2.7c-0.8,0.5-1.8,1.1-1.9,1.9
		c-0.4,3.4-2.5,5.8-4.2,8.4l0,0c-1,0.7-2.9,0.7-2.6,2.7c-0.1,1.7-0.2,3.4-0.2,5.1c-0.2,1.2-0.3,2.4-0.5,3.6c-0.2,1-0.3,2-0.5,3
		c-0.6,0.7-0.8,1.6-0.9,2.5c-1.4,3.1-3.2,6-5.2,8.8l0,0c-0.4,0.2-0.6,0.5-0.4,0.9l0,0c-0.3,0-0.4,0.1-0.4,0.4l0,0
		c-0.3,0-0.4,0.1-0.4,0.4l0,0c-0.7-0.1-1,0.3-1.3,0.9l0,0c-1,0.2-1.6,1-2.2,1.7c-1.2,0.4-2.4,1-3.5,1.8c-1.2,0-1.9,0.7-2.4,1.6
		c-2.2,3.5-5.3,5.9-8.4,8.5c-1.9,1.7-4.4,2.7-6.1,4.6c-0.7,0.3-1.4,0.6-2.2,1c-0.9,0.5-2.1,0.6-2.6,1.7c-0.8,0.1-1.6,0.3-2.2,0.9
		c-2.2,0.9-4.3,1.8-6.5,2.6c-2.1,0.7-4.3,1.5-6.4,2.2c-1.3,0.3-2.8,0.4-3.9,1.2c-1.9,0-3.8,0.4-5.6,0.9c-1.2,0.1-2.4-0.4-3.5,0.4
		c-2,0-4,0-6,0c-1.2,0-2.3,0-3.5,0c-4.8-1-9.8-1.3-14.3-3.6c-0.5-0.3-0.8,0.1-0.9,0.6c-0.7,0.4-1.6,0.7-1.7,1.7
		c-1,0.2-1.5,0.8-1.8,1.7c-1.9,0.2-3,1.5-4.3,2.7c-1.1,0.2-2,0.8-2.7,1.7c-0.9,0.3-2,0.3-2.5,1.3c-0.7,0.2-1.4,0.3-2.1,0.5
		c-1.2,0.1-2.1,0.8-3.1,1.3c-0.3,0-0.5,0-0.8,0c-0.2,0.1-0.3,0.3-0.5,0.4c-0.1,0-0.2,0-0.4,0.1c-1.4-0.2-2.6,0.8-4,0.8
		c-1.3,0.1-2.6,0.3-3.9,0.4c-1.2,0-2.3,0-3.5,0.1c-0.8,0-1.7,0-2.5,0c-1,0-2.1,0-3.1,0c-1.4-0.5-2.8-0.5-4.3-0.4
		c-1.3-0.8-2.9-0.9-4.4-1.3c-0.4,0-0.8,0-1.3-0.1c-0.5-1.1-1.8-0.7-2.6-1.3c-0.8-0.4-1.6-0.9-2.6-0.9c-0.4-0.9-1.5-0.8-2.2-1.3
		c-0.9-0.3-1.6-1.2-2.6-1.3c-1.9-1.8-2.5-1.6-4.8,0.8c-1.1,0.1-2,0.4-2.7,1.3c-0.9,0.1-2-0.2-2.5,0.9c-0.9,0-1.8,0-2.6,0.5
		c-1,0.6-2.2,0.3-3,1.3c-0.3,0-0.6,0-0.9,0c-2,0.2-4.1,0.3-6.1,0.5c-0.7,0-1.4,0-2.1,0c-0.2,0.1-0.3,0.2-0.5,0.3c-0.3,0-0.6,0-0.9,0
		c-1.2,0-2.3,0-3.5,0c-0.3,0-0.5,0-0.8,0c-1.2-0.1-2.3-0.3-3.5-0.4c-0.9,0-1.7,0-2.6-0.1c-3.3-0.7-6.7-1.4-10-2.1
		c-1-0.2-2-0.3-3-0.5c-1-0.4-2-0.8-3-1.3c-0.9-0.2-1.7-0.3-2.6-0.5c-1.6-1-3.2-2.1-5.1-2.2c-0.7-0.9-1.6-1.2-2.7-1.3
		c-0.5-0.8-1.3-1.1-2.1-1.3c-0.7-0.8-1.6-1.4-2.6-1.7c-0.9-0.9-1.8-1.8-2.8-2.6c-1.1-0.9-2-2.2-3.7-2.2c-1-0.5-2-0.4-3-0.5
		c-0.7-0.4-1.5-0.9-2.2-1.3c-0.9-0.4-1.7-0.9-2.6-1.3c-0.8-1.3-2-2.1-3.4-2.6c-0.3-1.1-1-1.9-2.2-2.2c-0.1-0.9-0.8-1.5-1.3-2.1
		c-0.2-0.9-0.8-1.5-1.3-2.2s-0.4-1.8-1.3-2.2c-0.9-2.8-1.7-5.5-2.6-8.3c0-1.6-0.1-3.2-0.1-4.8c0.1-3.9,0-4.2-3-5.2
		c-0.7-0.4-1.4-0.9-2.2-1.3c-0.6-1-1.5-1.6-2.6-1.8c-0.1-0.8-0.6-1.3-1.3-1.7c-0.5-0.8-0.9-1.6-1.7-2.2c-0.4-0.6-0.9-1.2-1.3-1.7
		c-0.2-1.1-0.8-1.9-1.7-2.6c-0.2-0.7-0.3-1.5-0.9-2.1c-0.1-0.3-0.3-0.6-0.4-0.9l0,0c-0.4-1.6-0.9-3.2-1.3-4.8c-0.3-1-0.6-2-0.9-3.1
		c0-2.5-0.4-4.9-0.9-7.3c0.1-1.5,0.1-2.9-1.1-4c-2.7-2.3-3.8-5.6-5.4-8.7c-0.1-1-0.3-2-0.4-3c-0.1-1.2-0.3-2.4-0.4-3.5
		c-0.1-2.4,0.8-4.6,0.9-6.9c0.6-0.6,0.9-1.4,1.2-2.2c-0.3-1.7-0.6-3.4-0.9-5.1c0-2.2,0-4.4,0-6.6c0.3-1.6,0.6-3.2,0.9-4.8
		c0.4-1,0.7-2,1.1-3.1c0.2-0.7,0.4-1.4-0.6-1.7c-2.7-2.6-4.9-5.6-7-8.6c-0.2-1-0.6-1.9-1.3-2.6c-0.9-2.7-1.7-5.5-2.6-8.2
		c-0.1-1.1-0.3-2.1-0.8-3c0.1-1.2-0.1-2.3-0.5-3.5c-0.1-1.5-0.3-2.9-0.4-4.4c0.2-1.5-0.4-2.9-0.4-4.3c0-1.5,0-2.9,0-4.4
		c-0.1-1.6,0.3-3.2-0.4-4.8c0-1.1,0-2.3,0-3.4c0.4-1.1,0.5-2.3,0.4-3.4c0-2.3,0-4.6,0-7c0-1.3,0-2.6,0-3.9c0.8-1.1,0.3-2.3,0.4-3.5
		c0-2.3,0-4.6,0-6.9c0.1-1.3,0.2-2.6,0.3-3.9c0-1.3,0-2.6,0-3.8c-0.1-1.8-0.3-3.5-0.4-5.3c-0.2-0.9-0.3-1.8-0.5-2.7
		c-0.2-1.1-0.6-2.1-2-2c0-0.3,0-0.5,0.1-0.8c1-0.2,1.2-1,1.6-1.7c1.2-2.3,2-5,3.9-6.9c0.6-0.6,1.1-1.1,1.7-1.7
		c0.9-0.2,1.5-0.9,2-1.6c1.4-2,3.2-3.5,5.3-4.7c1.7-0.4,3.4-1,4.8-2c4.3-2,7.7-5.2,11.3-8.2c1.3-1.1,2.6-2.3,4.1-3.1
		c1.2-0.6,1.4-1.8,1.8-2.8c0.6-1.4,1.3-2.7,1.9-4.1c0.8-0.5,1.2-1.4,1.7-2.1c0.6-0.6,1.1-1.2,1.7-1.8c0.9-0.5,0.6-2.3,1.3-2.1
		c1.3,0.4,1.8-0.5,2.6-0.9c1.8-0.2,3.2-1.4,4.7-2.2c0.8-1.2,0.3-2.6,0.4-3.9c0.1-1.2,0.6-2.3,0.4-3.5c1.7-8,6.1-13.9,13.4-17.7
		c0.3-0.2,0.6-0.3,0.9-0.5l0,0c1.3-0.3,2.6-0.7,3.8-1c0.9-0.3,1.8-0.6,2.7-0.9c2.8-0.6,5.6-1.3,8.2-2.5c1.6-0.2,3.3-0.5,4.8-1.1
		c1.6-0.3,3.2-0.8,4.8-1.4c1,0,1.9-0.2,2.5-1c2-2.9,4.8-5,7.5-7.2c2.3-0.9,4.6-1.8,6.9-2.7c3.9-0.4,7.8-0.7,11.8-0.8
		c1.4,0,2.8-0.1,4.2-0.1c1.1,0.2,2.1,0.2,3.2,0c2-0.1,4-0.2,6-0.2c1,0,2.1-0.1,3.1-0.1c1.3,0,2.5,0,3.8,0c1.9,0.4,3.9-0.7,5.8-0.2
		C146.6,3,148,2.6,149.5,1.6z"/>
	<path class="st1" d="M163.3,242.1L163.3,242.1c-1.3-1.6-2.9-2.5-5-2.6c-1.8-0.1-2.6,0.2-1.7,2.1c0.3,4.1-1.9,6.6-5.6,7.9
		c-3.7,0.6-7.5,0.3-11.1,1.4c-1.1-0.1-2.3,0-3.4,0.3c-1.9-0.3-3,0.6-3.9,2.3c-2.5,4.6-3.9,9.5-3.8,14.7c0.2,12.7,8.9,23.5,21.1,26.7
		c12.1,3.1,24.9-2.3,31.2-13.1c6.3-11,4.6-24.7-4.3-33.8c-1.5-1.6-3.2-2.4-5.3-2.3l0,0c-0.4-0.6-1.2-0.5-1.8-0.7
		c-1.6-0.6-3.1-1.3-4.7-1.9C164.6,242.4,164.1,242,163.3,242.1z"/>
	<path class="st1" d="M117.7,252.7c-4.6,0-9-1-13.3-2.8c-0.7-0.6-1.6-1.1-2.5-1.3c-2.5-2.1-5.1-4.1-7.1-6.6c-0.5-1.1-0.9-2-2.4-0.8
		c-12.2,9.2-14.2,27.1-4.3,38.9s28.1,12.9,39.2,2.3c1.2-1.2,1.2-2.1,0.3-3.3c-0.2-0.6-0.2-1.2-0.7-1.6c-0.5-2.5-0.9-5-1.4-7.5
		c-0.1-3.7,0.3-7.3,1-11c0.9-2.3,1.9-4.5,2.9-6.9c-2,0-3.8,0-5.6,0.5c-0.9,0-1.7,0-2.6,0C120.1,252.6,118.9,252.6,117.7,252.7z"/>
	<path class="st1" d="M200.6,242.1c-1.7,0.7-3.4,1.4-5.1,2.1c-1.6,0.4-3.2,0.9-4.8,1.3c-3.3,0.5-6.6,1-10.3,1c2.4,3.1,4.2,5.9,5.6,9
		c2.6,6.2,2.8,12.6,1.7,19.1c-0.8,1.3-0.5,2.1,0.8,3c12.7,8.4,30.2,4.3,37.9-9c7.7-13.3,2.6-30.5-11-37.4c-1.5-0.7-2.2-0.5-2.8,0.9
		c-0.4,0.4-0.9,0.8-1,1.4c-1.3,1.3-2.7,2.7-4,4c-1,0.3-1.7,1.1-2.5,1.7C203.5,240.4,202,241.2,200.6,242.1z"/>
	<path class="st1" d="M24.6,88.1c4.1,0.1,8.1-0.5,12-1.1c10.7-1.6,21.2-2.1,30.9,3.7c0.5,0.3,1.2,0.5,1.8,0.6
		c1.3,0.3,2.5,0.7,4.3,0.5c-3.1-3.3-3.3-7.1-3.3-11c0-1.4-0.1-2.9-0.3-4.3c-1-5.6-3.1-10.7-8.1-14.1c-5.6-3.7-12.1-0.8-13.1,5.8
		c-0.6,3.9,2.6,9.1,6.4,10.3c1.2,0.4,2.3,0.5,3.5-0.4c-2.6-1.5-3.8-3.3-3.8-5.7c-0.1-2.7,1.8-3.9,4.2-2.7c2.2,1.1,3.6,3.1,4.7,5.3
		c2.2,4.7,0.1,7.9-5.1,7.9c-5.3-0.1-9.3-2.8-12.5-6.8c-1.2-1.5-2.4-1.7-3.9-0.7c-0.9,0.6-1.8,1.2-2.6,1.9
		C35,81.4,30.1,85.2,24.6,88.1L24.6,88.1z"/>
	<path class="st1" d="M123.3,291.8c-6,1.9-12.1,3.2-18.5,2.8c-14.2-0.8-26.6-11.9-28.8-25.9c-0.7-4.7-0.1-9.3,1.5-14.2
		c-3,1.3-5.7,2.2-8.5,2.6c-2.9,0.4-5.7,0.6-8.6,1c-3.1,0.4-5.6,1.8-7.2,4.6c-3.3,5.8,0.2,16,6.4,18.5c2.3,1,4.6,0.7,6.5-0.9
		c2-1.6,2.8-3.8,2.6-6.3c-0.1-1.1-0.5-2.2-2-2.8c0.5,1.9-0.3,3.2-1.8,4.1c-1.2,0.7-2.5,0.9-3.7,0.1c-1.9-1.2-2.9-4.8-2-7
		s3.1-3.2,5.8-2.6c7.8,1.7,10.7,10,6,17.1c-2,3.1-2,3.1,1,5.3c0.5,0.4,1.1,0.8,1.6,1.1c11.2,6.1,23,9.1,35.8,7.9
		c5-0.5,9.9-1.9,14-5.1c0.2-0.1,0.6,0,0.5-0.3C123.8,291.4,123.5,291.6,123.3,291.8z"/>
	<path class="st1" d="M273.9,150.6c-0.1-0.1-0.1-0.2-0.2-0.2c0,0.1,0,0.1,0,0.2C273.7,150.6,273.8,150.6,273.9,150.6
		c1,6-0.2,11.7-2,17.4c-0.3,1-0.3,2.1-0.2,3.2c0.2,5.8,5.8,9.5,11.2,7.4c2.4-0.9,3.3-2.5,3.1-5c-2.6,2.3-6.1,1.2-6.8-2
		c-0.5-2.4,2-6.3,4.5-7c2.4-0.7,4.5,0.5,5.8,3.2c3.9,8.3-1.7,17.3-10.9,17c-1.8,0-2.9,0.6-3.6,2.1c-0.5,0.9-1,1.8-1.2,2.8
		c-3.3,11.1-2.9,22.1,1.7,32.8c0.2,0.4,0.2,1,1.1,1c-1.2-13.1,4.1-23.9,12.4-33.5c2.1-2.4,4-5,5.8-7.5s3.1-5.2,3.6-8.2
		c1.5-8.9-2.5-18.4-12.3-18.2c-1.2,0-2.5-0.6-3.8-1C279.2,154.1,276.6,152.3,273.9,150.6z"/>
	<path class="st1" d="M97.5,50.7c0-4.4-0.1-8.8-0.5-13.2c0-0.5,0-0.9,0-1.4c0-2.4-0.1-4.8-0.1-7.1c0-1.3-0.6-1.3-1.6-1
		c-8.2,2.4-16.3,4.7-24.5,7.2c-4.7,1.4-6.9,5.6-5.7,10.4c0.4,1.3,0.8,2.6,1.1,3.9C70,62.3,73.7,75.2,77.5,88
		c0.2,0.8,0.1,1.9,1.6,1.8c2.5-0.2,5,0.3,7.5,0.5c0.5,0.1,0.9,0.2,1.4,0.3c4,1.3,7.8,2.9,11.3,6.2c-0.1-1.4-0.1-2.3-0.2-3.1
		c-0.1-3.1-0.2-6.3-0.4-9.4c-0.3-8.1-0.6-16.2-0.9-24.3C97.9,56.9,97.9,53.7,97.5,50.7z"/>
	<path class="st1" d="M118.9,129.5c0.6-1.4,1.7-2.7,1.8-4.1c0.1-3.1,0.9-6,1.6-8.9c0.3-1.2,0.1-1.7-1-2.3c-2.5-1.5-2.3-5,0.3-6.4
		c0.7-0.4,1.6-0.5,2.4-0.7c-3-4.1-4.2-8.8-4.4-13.7c-0.1-3.7,2-6.6,5.6-7.1c2.2-0.3,2.2-1.9,2.6-3.3c0.2-0.5,0.4-1.5,0-1.6
		c-1.3-0.4-2.1,0.9-3.2,1.4c-0.1,0-0.1,0.1-0.2,0.1c-1.8,1.2-3.5,1-4.9-0.4c-1.3-1.4-1.4-3.5-0.2-4.9c1.2-1.5,3-1.7,4.8-0.8
		c1,0.5,1.8,1.4,3.1,1.3c-0.3-1.8-1.4-3-2.2-4.3c-1.1-1.9-0.6-4.2,1.3-5.2c1.8-1,3.9-0.4,5.1,1.4c0.3,0.4,0.1,1.3,1,1.2
		c0.2-0.8,0.4-1.7,0.6-2.5c3.2-14.1,6.3-28.3,9.5-42.4c0.1-0.4,0.1-0.9,0.2-1.3c0.6-2.3,1.1-4.6,1.8-6.9c0.5-1.4,0.2-1.7-1.2-1.6
		c-10.5,0.4-21.1,0.8-31.6,1.1c-6.4,0.2-9.5,3.4-9.3,9.8c0.5,14.8,1.1,29.6,1.6,44.4c0.7,19.6,1.4,39.1,2.1,58.7
		c0.2,5.6,3.6,8.7,9.2,8.5c1.4,0,1.8-0.5,1.9-1.8c0.3-2.2,0.9-4.4,1.4-6.6C118.7,130.3,118.8,129.9,118.9,129.5z"/>
	<path class="st1" d="M216.7,75.2c2.2,0,4.3,0,6.5,0.2c1.4,0.1,2-0.2,2.3-1.7c2.5-11.3,5.1-22.5,7.6-33.8c1.2-5.6-1.3-9.5-6.9-10.7
		c-21.7-4.9-43.5-9.8-65.3-14.7c-6.7-1.5-10.3,0.8-11.8,7.5c-3.5,15.8-7.1,31.7-10.7,47.5c-1.2,5.3-2.4,10.6-3.6,16.1
		c3.1-0.1,5.9-0.6,8.6-1.1c0.6-0.1,1.2-0.2,1.7-0.3c4.5-0.5,9-0.9,13.5-1.4c1.2,0,2.5-0.1,3.7-0.1c1,0.1,2,0.1,3,0.2
		c4.2,0.4,8.2,1.3,11.7,3.9c2.8,2.1,4.5,4.9,5.7,8.5c2.5-4.3,5.4-7.7,8.7-10.8c2.4-1.7,4.9-3.4,7.3-5.1c5.2-2.5,10.7-3.8,16.4-4.1
		C215.8,75.3,216.2,75.3,216.7,75.2z"/>
	<path class="st1" d="M57.8,127.5c1.3-0.8,2.2-1.4,3.1-2c4.6-3,7.9-7,9.4-12.3c2.7-9.4-2-17.7-11.4-20.4c-2.8-0.8-5.7-1.1-8.6-0.9
		c-10.8,1-21.5,2.2-32.3,3.2c-0.9,0.1-1.2,0.4-1.1,1.3c1.1,8.6,0.4,17.2,0.1,25.7c-0.4,10.3-0.9,20.7,0.3,31c0.5,5,1.5,10,3.8,14.6
		c2.6,5.1,6.7,7.6,12.5,7.1c2.1-0.2,4.2-0.4,6.3-0.6c6.8-0.6,13.5-1.4,19.8-4.3c8.8-4.1,14.4-10.6,15.6-20.5
		C76.6,137.4,69.8,128.4,57.8,127.5z"/>
	<path class="st1" d="M176.2,121.2c0.3-5.5,0.8-13.1,0.4-20.8c-0.3-6-2.8-8.9-8.7-10.1c-5.8-1.2-11.7-0.4-17.5,0.3
		c-7.6,0.9-15.1,2.5-22.8,2.4c-1.2,0-1.2,0.5-1.2,1.4c0.9,10.4,7.4,13.8,15.4,9.4c2.9-1.6,6-2.8,9.3-3.3c3.7-0.5,6.3,1.2,7.4,4.8
		c0.6,2,0.5,4.1,0.6,6.2c0.1,1.7-0.5,2.3-2.3,2.4c-8.3,0.5-16.2,2.2-23,7.3c-8.8,6.5-12.3,17.4-8.8,27.5c3.5,10,11.5,15.1,23.1,14.7
		c9.6-0.3,19.1-2,28.6-3c0.9-0.1,1.4-0.3,1.1-1.5C175.1,147.2,175.4,135.2,176.2,121.2z"/>
	<path class="st1" d="M147.5,206.3c0.5-8.8,0.9-16.2,0.6-23.6c-0.2-5.7-2.8-8.8-8.4-10c-4.7-1-9.3-0.6-14-0.2
		c-7.7,0.8-15.3,2.3-23,2.8c-5.5,0.3-5.7,0.4-4.2,6c0,0.1,0,0.1,0.1,0.2c1.3,4.5,3.8,6.1,8.4,5.4c3-0.5,5.8-1.6,8.7-2.7
		c2.6-0.9,5.2-1.9,7.9-2.1c3.6-0.2,5.9,1.4,6.8,5c0.6,2.6,0.5,5.2,0.2,7.8c-0.1,1-0.5,1.3-1.5,1.4c-2.6,0.2-5.2,0.4-7.7,0.8
		c-7.8,1.4-14.9,4.2-20.2,10.4c-6.5,7.6-7.8,16.3-3.8,25.5c3.9,8.9,11.2,13,20.9,12.9c9.8-0.1,19.4-1.9,29.1-2.9
		c2-0.2,2.6-0.9,1.8-2.8c-0.4-1-0.4-2.1-0.6-3.2C146.7,226.3,147.1,215.6,147.5,206.3z"/>
	<path class="st1" d="M216.7,163.7c2.3,7.1,2.7,14.1,2.6,21.2c0,9.5-1.1,18.9-1.2,28.4c0,4.4,0.1,8.8,1.5,13.1
		c1.2,3.8,3.5,6.6,7.5,7.8c3,0.9,6,0.7,9,0.4c1.1-0.1,1.2-0.5,1-1.5c-0.6-3.6-1.2-7.3-1.7-10.9c-0.8-6.6-1-13.2-0.3-19.9
		c0.1-0.7-0.1-1.4,1-1.6c5-1.2,10.3,1.4,12.3,6.2c0.6,1.5,1,3,1.2,4.6c0.8,5,0.9,10.1,2.5,14.9c1.1,3.4,2.9,6.2,6.3,7.6
		c3.9,1.6,7.9,1.2,12,0.5c-1.2-2.5-2.2-4.8-2.7-7.3c-1.1-4.6-1.4-9.3-1.6-14c-0.2-3.8-0.3-7.7-1.3-11.4c-1.2-4.2-3.1-5.7-7.4-5.9
		c-0.7,0-1.4,0.1-1.6-1c-0.2-1.3,0.7-1.2,1.4-1.4c2.9-0.6,4.7-2.4,5.8-5.1c0.8-2,1.1-4,1.4-6.1c1-7.9-0.5-16.1,2.8-23.8
		c-3.5-0.1-6.7,0.2-9.9,1.1c-6.1,1.7-8.5,5.1-8,11.5c0.2,2.9,0.6,5.7,0.8,8.6c0.7,8.2-2.4,12.1-10.5,13.5c-0.7,0.1-1.4,0.2-2.1,0.3
		c-1.3,0.3-1.8-0.1-1.7-1.5c0.3-2.5,0.4-5,0.6-7.6c0.3-4.5,0.9-9.1,0.6-13.6c-0.3-4.8-1.8-6.5-6.5-7.2
		C226,162.8,221.5,163.1,216.7,163.7z"/>
	<path class="st1" d="M295.5,76.5c-1.9-0.1-3.7,0.4-5.4,0.8c-10,2.4-13,6.8-11.7,17c0.3,2.4,0.5,4.7,0.3,7.1c-0.3,3.4-2,5.8-4.9,7.4
		c-1.7,0.9-3.5,1.5-5.3,1.7c-4.8,0.6-4.2,1.4-3.9-3.5c0.3-5.8,1.2-11.5,0.7-17.3c-0.3-4.5-2.1-6.6-6.5-7.8c-4-1.1-8-0.8-12.1-0.7
		c-1.6,0-1.7,0.7-1.3,2c1.2,3.7,1.7,7.6,2.1,11.5c0.9,10.3-0.3,20.5-0.7,30.7c-0.3,6.3-0.5,12.6,1.5,18.7c1.6,4.8,4.9,7.5,9.9,8.1
		c1.9,0.2,3.9,0.1,5.8-0.1c1.5-0.1,1.9-0.6,1.6-2.1c-0.6-3.1-1.1-6.3-1.5-9.4c-0.9-6.8-1.1-13.5-0.5-20.3c0.1-0.8-0.3-1.9,1.1-2.2
		c5.9-1.3,11.3,1.9,13,7.7c0.8,2.9,1,5.8,0.9,8.8c0,2.8,0.1,5.5,0.9,8.1c1.3,4.1,4,6.6,8.3,7.1c2.8,0.3,5.5-0.2,8.1-0.8
		c1.3-0.3,1.4-0.8,1-1.9c-1.2-3.3-1.7-6.7-2-10.2c-0.5-5-0.4-10.1-1.1-15.1c-1-6.2-2.4-7.7-8.5-8.5c-0.7-0.1-1-0.4-1-1.1
		c-0.1-0.7,0.1-1,0.9-1.2c4.8-0.8,6.5-4.4,7.3-8.6c0.7-3.6,0.8-7.3,0.9-11C293.4,86.5,293.5,81.4,295.5,76.5z"/>
	<path class="st1" d="M192.7,205.7c1.8,3.5,2.3,6.9,2.1,10.4c-0.2,4.3-0.9,8.5-3.1,12.3c-3.4,5.6-9.3,5.7-12.9,0.3
		c-1.4-2.1-2.3-4.3-3-6.7c-2.3-8.1-2.7-16.4-2.2-24.7c0.3-5.9,1.3-11.8,3.5-17.3c1-2.6,2.4-5,4.7-6.6c2.5-1.8,5.3-2,8-0.9
		c2.6,1.1,2.8,3.6,2.9,6.1c0.1,2,0,4,0.4,6c0.9,4.1,3.3,6.4,7.5,7c2.9,0.4,5.7-0.2,8.6-0.8c1.1-0.2,1.3-0.8,1.3-1.8
		c0.1-3.6,0.1-7.2-0.5-10.8c-1.4-8.9-4.8-12.2-13.8-13.3c-3.7-0.5-7.3-0.2-11,0.1c-8.9,0.7-16.2,4.5-21.5,11.5
		c-10.5,13.8-12.9,29.1-7.6,45.5c3.2,9.8,9.9,16.2,20.5,17.7c7.4,1,14.6-0.3,21.2-3.7c6.3-3.2,10.8-8.2,12.9-15
		c1.2-3.9,1.4-7.8-0.2-11.7c-1.4-3.2-3.5-4.5-7-4.2C200,205,196.5,205.4,192.7,205.7z"/>
	<path class="st1" d="M220.5,123.4c2.1,2.4,3.2,4.9,3.1,7.7c0,4.2-0.7,8.3-2.2,12.3c-0.5,1.5-1.3,2.9-2.4,4.1
		c-3.2,3.6-7.7,3.6-10.8-0.1c-1.9-2.2-2.9-4.8-3.7-7.5c-2.8-9.7-3.1-19.5-2-29.4c0.5-4.9,1.5-9.7,3.7-14.2c1-2.1,2.2-4.1,4.2-5.4
		c2.5-1.8,5.3-2,8-0.9c2.6,1.1,2.8,3.6,2.9,6.1c0.1,1.3,0,2.6,0.1,3.9c0.4,5.3,3.2,8.1,8.4,8.7c2.6,0.3,5.2-0.1,7.8-0.5
		c1.2-0.2,1.6-0.6,1.6-1.8c0.1-3.6,0.1-7.2-0.5-10.8c-1.5-8.8-4.9-12-13.8-13.2c-3.5-0.4-6.9-0.2-10.4,0
		c-10.9,0.7-19.1,5.9-24.8,14.9c-7.5,11.9-9.5,24.9-6.2,38.7c1.5,6.4,4.6,12,9.8,16.2c6.9,5.4,14.8,6,23,4.5
		c8.9-1.6,16.4-5.7,20.9-13.9c2.7-4.8,3.8-10,1.9-15.4c-1.3-3.8-3.6-5.3-7.6-4.9C228.2,122.7,224.6,123,220.5,123.4z"/>
	<path class="st1" d="M91.3,203.6c0.1-4.3-0.1-8.5-0.5-12.8c-0.5-5-1-10-2.9-14.8c-1.5-3.9-4.4-5.7-8.5-5.9c-3.2-0.1-6.2,0.9-9.2,2
		c-1.7,0.6-2.2,1.3-1.8,3.3c3.4,16.4,4.9,33,3.4,49.7c-0.5,4.8-1.4,9.6-3.9,13.9c-1.8,3.2-4.4,5-8.3,5c-6.2,0-7.6-1.7-6.2-7.7
		c1.1-4.7-0.3-6.9-5-8c-4.2-1-8.5-0.6-12.7-0.4c-1.1,0-1.3,0.6-1.3,1.5c0.1,4.3,0.5,8.5,1.8,12.6c1.8,5.4,5.4,8.7,11,9.8
		c6.6,1.2,13.1,0.7,19.6-0.4c12.1-2,19.4-9.2,21.9-21.2C90.7,221.4,91.2,212.5,91.3,203.6z"/>
	<path class="st1" d="M99.7,117L99.7,117c0-0.3-0.1-0.6,0-0.9c0.1-12.5-7.7-20-20.2-19.4c-0.6,0-1.9-0.4-1.3,1.1
		c2.7,7,2.8,14.3,2.7,21.6c-0.1,9.4-0.8,18.8,0.1,28.2c0.5,5.5,1.3,10.9,4.2,15.8c2.4,4.1,6,5.8,10.7,5.3c3.7-0.4,7.3-0.7,11-1.1
		c6-0.6,12.1-1.2,18.1-1.9c1-0.1,2-0.1,1.5-1.7c-0.8-2.2-1.4-4.4-2.7-6.4c-2.3-3.5-4.9-4.4-8.9-3.2c-2.5,0.8-4.8,2-7.1,3.3
		c-1.9,1-3.9,2-6,2.5c-1.4,0.3-2,0-2.4-1.5c-1.5-6.6-1.8-13.3-1.4-20C98.5,131.4,99.1,124.2,99.7,117z"/>
	<path class="st1" d="M193.2,285.2c5.7,2.8,11.7,3.9,18,3.5c12.1-0.8,22.8-5.3,32.6-12.3c2-1.4,3.8-3.1,5.3-5.1
		c0.9-1.2,1.1-2.1-0.5-3.1c-2.8-1.8-4.9-4.2-6.1-7.4c-2.4-6.3,1.4-13.4,7.8-14.3c4.2-0.6,7.5,2.5,6.9,6.7c-0.2,1.7-0.6,3.6-2.7,4
		c-2.1,0.4-3.8-0.4-5.2-2c-0.6-0.7-0.7-1.6-0.8-2.6c-2.5,2.2-3,4.5-1.5,7c3.4,6.1,11.3,6.4,15.2,0.6c0.8-1.3,1.4-2.7,1.9-4.1
		c3.7-11.8-3.4-19.9-15.4-17.7c-1.6,0.3-3.3,0.6-4.9,0.9c-3.7,0.7-7.4,0.4-11.3-0.1C245.3,262.6,226.3,293.1,193.2,285.2z"/>
	<path class="st1" d="M63.9,175.2c-3.8,1.3-7.5,1.8-11.2,2.2c-1.4,0.2-2.7,0.3-4.1,0.6c-5.1,1.2-8.2,4.7-9,9.9
		c-0.6,4.4,0.7,8.3,3.4,11.7c2.8,3.5,5.7,6.9,8.6,10.3c4.2,5.2,7.4,10.8,8.4,17.6c0.5,3.2,0.2,6.4,0.3,9.6
		c5.6-9.1,6.8-18.9,4.4-29.1c-1.2-4.9-2-5.4-7-5.7c-7-0.4-11.5-6.5-9.5-13.2c0.7-2.3,2-4.2,4.6-4.6c2.2-0.3,4.7,1.4,5.8,3.8
		c1.1,2.4,0,4.7-2.6,5.4c-1.4,0.4-2.6-0.1-3.8-1.3c-0.2,2.1,0.8,3.2,2.2,3.9c2.6,1.4,5.4,1.7,8,0c2.6-1.7,3.5-4.3,2.9-7.2
		C64.4,184.6,63.5,180.1,63.9,175.2z"/>
	<path class="st1" d="M286.9,72.3c-6-1.3-11.7-3.2-17.4-5.5c-2.9-1.2-5.7-2.5-8.7-3.3c-1.9-0.5-3.4-0.4-4.8,1.6
		c-3.1,4.7-9.5,6.6-14.4,5c-2.5-0.9-3.8-2.5-3.8-4.7c0.1-3.3,3.6-6.9,6.9-7c2.3-0.1,3.5,1.4,3,3.6c-0.4,1.9-1.7,3-3.8,3.5
		c2.1,1.1,3.4,1.2,5.3,0.3c2.8-1.3,4.3-4.1,4-7.5c-0.3-4.1-2.6-7.4-5.6-8.3c-5.1-1.4-9.8,0.7-12.1,5.4c-0.9,1.9-1.5,3.9-1.9,6
		c-1.3,5.8-1.1,11.9-4.8,17.1c3.5,0.4,6.6-0.1,9.6-1.1c8.9-3.1,17.7-3.6,26.7-0.1c4.3,1.7,8.5,1.1,12.5-1.2
		C280.6,74.4,283.5,72.8,286.9,72.3z"/>
	<path class="st1" d="M37.6,181.3c-0.5,0.2-0.8,0.2-1.1,0.4c-8.9,4.2-10.1,16.1-7.5,21.9c0.6,1.3,1.5,1.8,2.9,1.7
		c2.7-0.1,5.3,0.5,7.5,2.3c2.9,2.3,3.8,6.3,2.2,9.1c-1.1,1.8-2.7,2.6-4.7,2.4c-1.9-0.2-3.3-1.2-3.8-3c-0.3-1.1-0.2-2.2,0.9-2.8
		c1-0.6,2-0.4,2.6,0.7c0.7,1.5,1.1,0.5,1.5-0.2c0.7-1.2,0.1-2.3-0.9-3c-1.7-1.3-3.6-1.7-5.7-1.5c-3.5,0.3-5.5,3.2-4.7,6.6
		c0.9,3.8,4.3,7.1,8.2,7.2c6.2,0.2,12.4-0.4,18.6,1.5c-0.2-1.2-0.3-2.1-0.5-2.9c-1-4.4-3.6-7.8-6.4-11.1c-2.7-3.2-5.8-6-8.3-9.4
		c-3.1-4.3-4.1-9-2.6-14.2C36.1,185,36.8,183.3,37.6,181.3z"/>
	<path class="st1" d="M210.5,137c0.2,0,0.4,0,0.6,0c0.1-0.3,0.2-0.6,0.3-1c1.8-7.9,3.5-15.8,5.3-23.6c0.5-2,0.6-3.8-0.5-5.7
		c-1.4-2.5-1.7-5.3-1.7-8.2c0-0.7-0.1-1.3-0.1-2c-0.2,0-0.5,0-0.7,0C207.2,109.6,208.1,123.2,210.5,137z"/>
	<path class="st1" d="M134.6,112.6c-1.7-0.4-3.1-0.8-4.6-1.2c-0.7-0.2-1.1-0.2-1.2,0.6c-0.4,1.7-0.7,3.3-1.2,5.4
		C130,115.5,132.1,114,134.6,112.6z"/>
	<path class="st1" d="M129.5,78.4c2.3-1.2,1.8-3.1,2-4.7C130.6,75,129.7,76.3,129.5,78.4z"/>
	<path class="st2" d="M207.1,10.5c-0.2-0.1-0.3-0.2-0.5-0.3C206.8,10.3,207,10.4,207.1,10.5z"/>
	<path class="st3" d="M215.3,75.4c-5.7,0.3-11.2,1.7-16.4,4.1c-0.4-0.6-0.6-1.3-1.1-1.9c-1.5-2.1-3.5-2.7-5.4-1.8
		c-2.1,1-3,3.2-2.3,5.7c0.3,1.1,0.9,2.1,1.4,3.1c-3.2,3.2-6.2,6.6-8.7,10.8c-1.2-3.6-2.9-6.5-5.7-8.5c-3.5-2.6-7.5-3.5-11.7-3.9
		c-1-0.1-2-0.1-3-0.2c2.4-2,5.5-3.2,7.7-5.6c1.8-2,2-4.4,0.6-6.3c-1.4-1.7-3.8-2.1-6-0.4c-1.7,1.3-2.2,0.9-3.2-0.8
		c-1.4-2.4-3.6-3.1-5.7-2.1c-2.1,1.1-2.9,3.3-2.1,5.9c0.4,1.4,1.2,2.6,1.9,3.9c1,1.8,2.4,3.4,3.1,5.4c-4.5,0.5-9,0.9-13.5,1.4
		c0.3-4.3,1.7-8.3,2.6-12.5c2.1-9.9,4.4-19.7,6.6-29.5c0.1-0.5,0.8-1.4-0.1-1.7c-1-0.3-1,0.7-1.2,1.4c-3.2,14.2-6.4,28.4-9.6,42.6
		c-2.8,0.5-5.5,0.9-8.6,1.1c1.2-5.5,2.4-10.8,3.6-16.1c3.6-15.8,7.1-31.7,10.7-47.5c1.5-6.7,5.1-9,11.8-7.5
		c21.8,4.9,43.5,9.8,65.3,14.7c5.6,1.3,8.2,5.2,6.9,10.7c-2.5,11.3-5.1,22.5-7.6,33.8c-0.3,1.5-0.9,1.8-2.3,1.7
		c-2.1-0.2-4.3-0.1-6.5-0.2c0.1-0.3,0.3-0.7,0.3-1c2.5-11.3,5-22.7,7.6-34c0.5-2.1,0.1-2.9-2.1-3.4c-16.4-3.6-32.8-7.4-49.1-11
		c-2.5-0.6-5.1-1.1-7.6-1.7c-0.5-0.1-1.3-0.3-1.4,0.5c-0.1,0.7,0.6,0.7,1.1,0.8c0.2,0.1,0.4,0.1,0.6,0.2c8,1.8,16,3.6,24,5.4
		c10.6,2.4,21.2,4.8,31.8,7.2c1.1,0.2,1.6,0.6,1.2,1.8c-0.5,1.8-0.8,3.7-1.2,5.5C219.8,55.4,217.5,65.4,215.3,75.4z"/>
	<path class="st3" d="M203.8,59.7c2-2.2,4.4-3.6,6.7-5c1.3-0.8,2.5-1.6,3.6-2.8c2-2.1,2.2-4.5,0.6-6.4c-1.5-1.8-3.8-2-6.2-0.3
		c-1.4,1.1-2.1,0.9-2.7-0.7c-0.1-0.4-0.5-0.7-0.8-1.1c-1.3-1.4-2.9-2.2-4.8-1.4c-1.9,0.9-2.8,2.4-2.7,4.5c0.1,1.7,0.9,3.2,1.8,4.6
		C200.8,53.9,202.8,56.5,203.8,59.7z"/>
	<path class="st3" d="M167.2,51.6c2.2-2.6,5-4,7.5-5.7c1.4-1,2.9-2,3.7-3.5c1-1.7,0.8-3.5-0.4-5.1s-2.9-1.8-4.7-1.1
		c-0.7,0.3-1.5,0.7-2.1,1.2c-0.9,0.8-1.3,0.6-1.9-0.4c-1.8-3.2-4-4.1-6.3-2.9c-2.4,1.3-3,3.9-1.6,7c0.3,0.7,0.7,1.4,1.1,2.1
		C164.4,45.8,166.2,48.3,167.2,51.6z"/>
	<path class="st3" d="M184.7,58.9c-0.2-0.3-0.4-0.7-0.6-1.1c-1.8-3.1-4-4.1-6.3-2.9c-2.4,1.3-3,3.9-1.6,7c0.2,0.5,0.5,1,0.8,1.5
		c1.6,2.9,3.8,5.6,4.8,9c2.1-2.4,4.6-3.7,7-5.3c1.6-1.1,3.3-2.1,4.3-3.9c1-1.8,0.8-3.5-0.4-5c-1.2-1.6-3-1.7-4.7-1.1
		C186.8,57.6,185.8,58.3,184.7,58.9z"/>
	<path class="st3" d="M155.4,38.2c1.6-1.2,3.3-2.3,4.8-3.5c0.9-0.8,1.1-1.9,0.4-2.9c-0.7-1-1.7-1-2.7-0.5c-0.5,0.2-1,1-1.6,0
		c-0.8-1.3-1.9-2-3.2-0.9c-1.3,1-0.9,2.3-0.2,3.5C153.7,35.3,154.5,36.7,155.4,38.2z"/>
	<path class="st3" d="M159.4,21.3c-1.1,1.6-2.1,3.2-3.2,4.8c-0.4,0.7-0.6,1.3,0.2,1.8c0.7,0.4,1.2,0.2,1.7-0.4
		c1.2-1.8,2.4-3.6,3.7-5.3c0.6-0.8,0.6-1.6-0.4-1.9c-1.5-0.4-3-1-4.7-0.9C156.9,21,158.6,20.3,159.4,21.3z"/>
	<path class="st4" d="M57.8,127.5c12,1,18.8,9.9,17.4,22.1c-1.2,9.9-6.7,16.5-15.6,20.5c-6.3,2.9-13,3.6-19.8,4.3
		c-2.1,0.2-4.2,0.4-6.3,0.6c-5.8,0.5-9.9-2.1-12.5-7.1c-2.4-4.6-3.3-9.5-3.8-14.6c-1.1-10.3-0.6-20.6-0.3-31
		c0.3-8.6,1-17.2-0.1-25.7c-0.1-1,0.2-1.3,1.1-1.3c10.8-1.1,21.5-2.2,32.3-3.2c2.9-0.3,5.8,0.1,8.6,0.9c9.3,2.7,14,11,11.4,20.4
		c-1.5,5.3-4.8,9.3-9.4,12.3C60,126.1,59.1,126.6,57.8,127.5z"/>
	<path class="st4" d="M35.5,147c0.4,7.3,0.6,12.3,0.9,17.4c0,0.8-0.2,1.8,1.3,1.6c4.4-0.6,8.7-1.7,12.2-4.5
		c5.4-4.3,7.6-9.9,6.2-16.7c-1.3-6.2-5.4-9.8-11.4-11.4c-2.5-0.7-5-0.7-7.5-0.6c-1.4,0-1.8,0.6-1.8,2
		C35.6,139.6,35.5,144.5,35.5,147z"/>
	<path class="st4" d="M36.5,113.9c-0.2,0-0.5,0-0.7,0c0,3.6,0,7.2,0,10.8c0,0.6-0.4,1.6,0.9,1.5c5.5-0.7,10.8-1.8,15.1-5.8
		c5.7-5.4,4.6-13.5-2.4-17.1c-3.5-1.8-7.3-2-11.2-1.8c-1.3,0.1-1.7,0.5-1.7,1.8C36.6,106.8,36.5,110.4,36.5,113.9z"/>
	<path class="st3" d="M118.5,130.7c-0.5,2.2-1.1,4.3-1.4,6.6c-0.2,1.3-0.6,1.8-1.9,1.8c-5.6,0.1-9-2.9-9.2-8.5
		c-0.7-19.6-1.4-39.1-2.1-58.7c-0.5-14.8-1.1-29.6-1.6-44.4c-0.2-6.4,2.9-9.6,9.3-9.8c10.5-0.3,21.1-0.7,31.6-1.1
		c1.5-0.1,1.7,0.2,1.2,1.6c-0.8,2.2-1.2,4.6-1.8,6.9c-7.8-0.4-15.6,0.6-23.4,0.5c-0.6,0-1.3,0.1-1.3,0.8c0.1,0.9,0.9,0.7,1.5,0.7
		c7.6-0.2,15.3-0.8,22.9-0.7c-3.2,14.1-6.3,28.3-9.5,42.4c-0.2,0.8-0.4,1.7-0.6,2.5c-1,0.1-0.7-0.8-1-1.2c-1.2-1.8-3.3-2.4-5.1-1.4
		c-1.9,1.1-2.4,3.3-1.3,5.2c0.8,1.4,1.9,2.6,2.2,4.3c-1.3,0.2-2.1-0.8-3.1-1.3c-1.9-1-3.6-0.7-4.8,0.8c-1.2,1.5-1.1,3.6,0.2,4.9
		c1.4,1.4,3.1,1.5,4.9,0.4c0.1,0,0.1-0.1,0.2-0.1c1-0.6,1.8-1.8,3.2-1.4c0.4,0.1,0.2,1.1,0,1.6c-0.4,1.4-0.4,3-2.6,3.3
		c-3.6,0.5-5.7,3.4-5.6,7.1c0.2,4.9,1.4,9.5,4.4,13.7c-0.9,0.3-1.7,0.4-2.4,0.7c-2.6,1.4-2.8,4.8-0.3,6.4c1.1,0.7,1.2,1.2,1,2.3
		c-0.6,2.9-1.5,5.8-1.6,8.9c0,1.4-1.1,2.7-1.8,4.1c-3.6-0.4-3.6-0.4-3.7-4.2c0-0.1,0-0.1,0-0.2c-0.1-7.7-0.5-15.4-0.8-23.1
		c-0.4-9.9-0.6-19.9-1-29.8c-0.2-5.6-0.2-11.2-0.5-16.9c-0.2-3.1-0.3-6.2-0.4-9.3c0-0.6,0.2-1.6-0.7-1.5c-0.9,0-0.6,1-0.6,1.6
		c0,0.4,0,0.7,0,1.1c0.1,7.5,0.5,15,0.8,22.5c0.3,7.9,0.5,15.8,0.9,23.8c0.5,10.9,0.7,21.9,1,32.9C114,130.8,114,130.8,118.5,130.7z
		"/>
	<path class="st3" d="M125.9,43.1c-1.4,0-2.2-0.9-3.1-1.4c-1.8-0.9-3.6-0.6-4.8,0.9c-1.1,1.4-1,3.5,0.2,4.8c1.4,1.5,3.1,1.7,4.9,0.5
		c0.8-0.5,1.7-1.1,2.5-1.6c0.8-0.4,1.2-0.2,1.1,0.8c-0.2,1.6-0.6,3.1-1.6,4.4c-0.5,0.6-0.5,1.1,0.4,1c1.6-0.1,3.1,0.1,4.8-0.4
		c-1.5-1.8-2.5-3.8-2.5-6.1c1.5,0.1,2.5,0.9,3.6,1.6c1.8,1,3.6,0.7,4.8-0.7c1.2-1.5,1.1-3.5-0.2-4.9s-3.2-1.5-4.9-0.4
		c-0.9,0.6-1.7,1.4-3,1.6c0.2-1.7,1-2.9,1.7-4.2c1.1-2,0.8-4-0.8-5.2c-1.4-1.1-3.5-1-4.8,0.3c-1.5,1.4-1.6,3.1-0.4,5.1
		C124.8,40.3,125.7,41.4,125.9,43.1z"/>
	<path class="st3" d="M112.9,39.6c0.8-0.2,1.3,0.6,1.9,0.7c1.6,0.4,2.8-1.4,1.9-2.7c-1.2-1.7-2.5-0.2-3.7,0.2
		c0.1-1.6,1.9-2.8,0.4-4.2c-0.6-0.5-1.3-0.7-2-0.2c-2.3,1.4,0.2,3,0.1,4.5c-1.2-0.6-2.3-1.6-3.5-0.3c-0.6,0.7-0.7,1.4-0.1,2.2
		c1.4,1.7,2.5,0.1,3.7-0.3c0.7,1-0.3,1.9-0.3,2.9c0.8,0.2,1.5,0.1,2.2-0.1C113.4,41.3,112.5,40.6,112.9,39.6z"/>
	<path class="st3" d="M108.6,22.6c0.6,1.3,1.3,1.4,2,1.3c1.4-0.2,1.4,0.5,1,1.5c-0.5,1.3-1,2.7-1.5,4c-0.3,0.8-0.5,1.6,0.6,1.9
		c0.9,0.3,1.3-0.2,1.5-1c0.7-2,1.4-3.9,2.1-5.9c0.5-1.2,0-1.8-1.2-1.8C111.8,22.6,110.4,22.6,108.6,22.6z"/>
	<path class="st4" d="M176.2,121.2c-0.8,14.1-1.1,26,1.8,37.7c0.3,1.1-0.2,1.4-1.1,1.5c-9.5,1-19,2.7-28.6,3
		c-11.6,0.4-19.7-4.7-23.1-14.7c-3.5-10.1-0.1-21,8.8-27.5c6.8-5,14.7-6.8,23-7.3c1.8-0.1,2.3-0.6,2.3-2.4c-0.1-2.1,0-4.2-0.6-6.2
		c-1.1-3.6-3.7-5.3-7.4-4.8c-3.3,0.4-6.4,1.7-9.3,3.3c-8.1,4.4-14.5,1-15.4-9.4c-0.1-0.9,0-1.4,1.2-1.4c7.7,0.1,15.2-1.5,22.8-2.4
		c5.8-0.7,11.6-1.5,17.5-0.3s8.4,4.1,8.7,10.1C177,108,176.5,115.7,176.2,121.2z"/>
	<path class="st4" d="M158.5,136.1c0.2,0,0.4,0,0.6,0c0-4.4-0.1-8.8,0-13.2c0.1-1.8-0.6-2-2.1-1.8c-8,1-14.4,6.9-16.1,14.9
		c-2.3,11,5.6,19.9,16.6,18.7c1.5-0.2,1.7-0.6,1.5-2C158.2,147.2,158,141.7,158.5,136.1z"/>
	<path class="st4" d="M147.5,206.3c-0.5,9.4-0.9,20,1,30.6c0.2,1.1,0.3,2.2,0.6,3.2c0.7,1.9,0.2,2.6-1.8,2.8
		c-9.7,0.9-19.3,2.7-29.1,2.9c-9.7,0.1-17-3.9-20.9-12.9c-4-9.2-2.7-17.8,3.8-25.5c5.3-6.2,12.4-9,20.2-10.4
		c2.6-0.5,5.2-0.7,7.7-0.8c1-0.1,1.4-0.4,1.5-1.4c0.2-2.6,0.4-5.2-0.2-7.8c-0.9-3.5-3.1-5.2-6.8-5c-2.8,0.2-5.3,1.2-7.9,2.1
		c-2.9,1-5.7,2.1-8.7,2.7c-4.6,0.8-7.1-0.9-8.4-5.4c0-0.1,0-0.1-0.1-0.2c-1.5-5.6-1.4-5.7,4.2-6c7.7-0.5,15.3-2,23-2.8
		c4.7-0.5,9.4-0.8,14,0.2c5.6,1.2,8.2,4.3,8.4,10C148.4,190.1,148,197.5,147.5,206.3z"/>
	<path class="st4" d="M130,218.1c0.2,0,0.4,0,0.6,0c0-4.2-0.1-8.5,0-12.7c0-1.6-0.3-2.1-2-1.9c-7.5,0.9-13.8,6.2-15.9,13.5
		c-3.3,11.6,4.9,21.6,16.4,20.1c0.9-0.1,1.6,0,1.4-1.4C129.6,229.8,129.6,224,130,218.1z"/>
	<path class="st4" d="M216.7,163.7c4.7-0.5,9.3-0.9,13.8-0.2c4.6,0.8,6.1,2.5,6.5,7.2c0.3,4.6-0.2,9.1-0.6,13.6
		c-0.2,2.5-0.3,5-0.6,7.6c-0.2,1.4,0.4,1.8,1.7,1.5c0.7-0.2,1.4-0.2,2.1-0.3c8.1-1.4,11.2-5.2,10.5-13.5c-0.2-2.9-0.6-5.7-0.8-8.6
		c-0.5-6.4,1.9-9.8,8-11.5c3.2-0.9,6.4-1.1,9.9-1.1c-3.3,7.7-1.8,15.9-2.8,23.8c-0.3,2.1-0.6,4.1-1.4,6.1c-1.1,2.6-2.9,4.5-5.8,5.1
		c-0.7,0.2-1.6,0.1-1.4,1.4c0.2,1.1,0.9,0.9,1.6,1c4.3,0.2,6.2,1.7,7.4,5.9c1,3.7,1.1,7.6,1.3,11.4c0.2,4.7,0.5,9.4,1.6,14
		c0.6,2.5,1.5,4.8,2.7,7.3c-4.2,0.7-8.1,1.1-12-0.5c-3.4-1.4-5.2-4.2-6.3-7.6c-1.5-4.9-1.6-10-2.5-14.9c-0.3-1.6-0.6-3.1-1.2-4.6
		c-2-4.8-7.3-7.4-12.3-6.2c-1.1,0.3-0.9,1-1,1.6c-0.7,6.6-0.5,13.3,0.3,19.9c0.4,3.7,1,7.3,1.7,10.9c0.2,1,0,1.4-1,1.5
		c-3,0.4-6.1,0.5-9-0.4c-4-1.2-6.2-4-7.5-7.8c-1.4-4.3-1.6-8.7-1.5-13.1c0.1-9.5,1.2-18.9,1.2-28.4
		C219.4,177.8,219.1,170.8,216.7,163.7z"/>
	<path class="st4" d="M295.5,76.5c-2,4.9-2.1,10-2.2,15c-0.1,3.7-0.1,7.4-0.9,11c-0.8,4.2-2.5,7.8-7.3,8.6c-0.7,0.1-0.9,0.5-0.9,1.2
		c0.1,0.7,0.3,1,1,1.1c6.1,0.9,7.5,2.4,8.5,8.5c0.8,5,0.7,10.1,1.1,15.1c0.3,3.5,0.8,6.9,2,10.2c0.4,1.2,0.3,1.7-1,1.9
		c-2.7,0.6-5.4,1.1-8.1,0.8c-4.4-0.5-7.1-3-8.3-7.1c-0.8-2.6-1-5.4-0.9-8.1c0-3-0.1-5.9-0.9-8.8c-1.6-5.8-7.1-9-13-7.7
		c-1.4,0.3-1.1,1.4-1.1,2.2c-0.5,6.8-0.4,13.6,0.5,20.3c0.4,3.1,0.9,6.3,1.5,9.4c0.3,1.5-0.1,2-1.6,2.1c-2,0.2-3.9,0.3-5.8,0.1
		c-5-0.6-8.4-3.2-9.9-8.1c-2-6.1-1.8-12.4-1.5-18.7c0.5-10.2,1.6-20.5,0.7-30.7c-0.3-3.9-0.9-7.8-2.1-11.5c-0.4-1.3-0.4-1.9,1.3-2
		c4-0.1,8.1-0.4,12.1,0.7c4.3,1.2,6.1,3.4,6.5,7.8c0.4,5.8-0.4,11.5-0.7,17.3c-0.3,4.9-0.9,4.1,3.9,3.5c1.9-0.3,3.7-0.8,5.3-1.7
		c3-1.6,4.6-4,4.9-7.4c0.2-2.4,0-4.8-0.3-7.1c-1.3-10.2,1.7-14.6,11.7-17C291.8,77,293.6,76.4,295.5,76.5z"/>
	<path class="st4" d="M192.7,205.7c3.8-0.3,7.3-0.7,10.8-1s5.6,1,7,4.2c1.6,3.8,1.4,7.8,0.2,11.7c-2.1,6.9-6.6,11.8-12.9,15
		c-6.7,3.4-13.8,4.8-21.2,3.7c-10.5-1.5-17.3-7.9-20.5-17.7c-5.3-16.3-2.9-31.7,7.6-45.5c5.3-7,12.6-10.8,21.5-11.5
		c3.7-0.3,7.4-0.5,11-0.1c9,1.1,12.4,4.4,13.8,13.3c0.6,3.6,0.6,7.2,0.5,10.8c0,1-0.2,1.6-1.3,1.8c-2.8,0.6-5.7,1.2-8.6,0.8
		c-4.2-0.6-6.6-2.8-7.5-7c-0.4-2-0.3-4-0.4-6c-0.1-2.4-0.3-4.9-2.9-6.1c-2.8-1.2-5.5-0.9-8,0.9c-2.3,1.7-3.6,4.1-4.7,6.6
		c-2.3,5.5-3.2,11.4-3.5,17.3c-0.5,8.3-0.1,16.6,2.2,24.7c0.7,2.4,1.6,4.6,3,6.7c3.6,5.4,9.5,5.3,12.9-0.3c2.3-3.8,2.9-8,3.1-12.3
		C195.1,212.6,194.5,209.2,192.7,205.7z"/>
	<path class="st4" d="M220.5,123.4c4.1-0.4,7.7-0.8,11.3-1.1c3.9-0.3,6.3,1.1,7.6,4.9c1.8,5.4,0.7,10.6-1.9,15.4
		c-4.6,8.2-12,12.2-20.9,13.9c-8.2,1.5-16.2,0.9-23-4.5c-5.3-4.2-8.3-9.8-9.8-16.2c-3.3-13.7-1.3-26.7,6.2-38.7
		c5.7-9,13.9-14.3,24.8-14.9c3.5-0.2,6.9-0.4,10.4,0c8.9,1.1,12.2,4.4,13.8,13.2c0.6,3.6,0.6,7.2,0.5,10.8c0,1.2-0.4,1.6-1.6,1.8
		c-2.6,0.4-5.1,0.8-7.8,0.5c-5.3-0.5-8.1-3.4-8.4-8.7c-0.1-1.3,0-2.6-0.1-3.9c-0.1-2.4-0.3-5-2.9-6.1c-2.7-1.2-5.5-0.9-8,0.9
		c-1.9,1.4-3.2,3.3-4.2,5.4c-2.1,4.5-3.1,9.3-3.7,14.2c-1.1,9.9-0.8,19.8,2,29.4c0.8,2.7,1.9,5.3,3.7,7.5c3.1,3.7,7.6,3.8,10.8,0.1
		c1.1-1.2,1.8-2.6,2.4-4.1c1.4-4,2.1-8.1,2.2-12.3C223.7,128.3,222.6,125.8,220.5,123.4z"/>
	<path class="st4" d="M91.3,203.6c-0.2,8.9-0.6,17.7-2.5,26.5c-2.5,12-9.8,19.1-21.9,21.2c-6.5,1.1-13,1.7-19.6,0.4
		c-5.6-1.1-9.3-4.4-11-9.8c-1.3-4.1-1.7-8.3-1.8-12.6c0-0.9,0.2-1.5,1.3-1.5c4.3-0.2,8.5-0.5,12.7,0.4c4.7,1.1,6.1,3.3,5,8
		c-1.4,6,0,7.7,6.2,7.7c3.8,0,6.4-1.8,8.3-5c2.5-4.3,3.4-9,3.9-13.9c1.6-16.7,0-33.3-3.4-49.7c-0.4-1.9,0.1-2.6,1.8-3.3
		c3-1.1,6-2.1,9.2-2c4.1,0.1,7,1.9,8.5,5.9c1.8,4.8,2.4,9.8,2.9,14.8C91.2,195.1,91.4,199.4,91.3,203.6z"/>
	<path class="st4" d="M99.7,117c-0.5,7.2-1.2,14.4-1.6,21.6c-0.4,6.7-0.1,13.4,1.4,20c0.3,1.6,1,1.8,2.4,1.5c2.1-0.5,4.1-1.5,6-2.5
		c2.3-1.2,4.6-2.5,7.1-3.3c4-1.2,6.7-0.3,8.9,3.2c1.3,2,1.9,4.2,2.7,6.4c0.6,1.6-0.5,1.6-1.5,1.7c-6,0.6-12.1,1.3-18.1,1.9
		c-3.7,0.4-7.3,0.7-11,1.1c-4.7,0.5-8.3-1.2-10.7-5.3c-2.9-4.9-3.7-10.3-4.2-15.8c-0.9-9.4-0.2-18.8-0.1-28.2
		c0.1-7.3,0-14.6-2.7-21.6c-0.6-1.6,0.7-1.1,1.3-1.1c12.5-0.6,20.3,6.9,20.2,19.4C99.6,116.4,99.6,116.7,99.7,117L99.7,117z"/>
	<path class="st3" d="M97,37.5c0.4,4.4,0.5,8.8,0.5,13.2c-0.9-0.5-1.8-0.9-2.7-1.4c-1.4-1-3.1-3.2-4-2.9c-1.5,0.5-1.3,3-2.1,4.6
		c-1.3,2.6-3,4.8-5,7.2c4.9,1.2,8.9,3.4,12.3,6.7c0.8-1.8,0.9-3.5,1.9-4.9c0.3,8.1,0.6,16.2,0.9,24.3c-1.4,2.6-3,5.1-5.2,7.4
		c2,0.7,3.8,1.4,5.6,2.1c0.1,0.8,0.1,1.7,0.2,3.1c-3.5-3.3-7.3-4.9-11.3-6.2c-0.1-0.5-0.1-1-0.2-1.5c-2.5-8.6-5-17.3-7.5-25.9
		c-0.3-0.9-0.1-2.8-1.4-2.3c-1.2,0.4-0.1,1.9,0.1,2.9c2.5,8.9,5.1,17.7,7.7,26.6c-2.5-0.2-5-0.7-7.5-0.5c-1.4,0.1-1.3-1-1.6-1.8
		c-4-13-7.7-25.9-11.5-38.8c-0.4-1.3-0.8-2.6-1.1-3.9c-1.3-4.7,1-9,5.7-10.4c8.1-2.4,16.3-4.8,24.5-7.2c1-0.3,1.6-0.3,1.6,1
		c0,2.4,0.1,4.8,0.1,7.1c-5.2,1.5-10.4,2.9-15.6,4.4c-0.5,0.2-1.3,0.3-1.1,1c0.3,1,1,0.4,1.6,0.2C86.9,40.4,91.9,38.9,97,37.5z"/>
	<path class="st3" d="M82,52.8c-2.2-0.7-4-1.7-5.9-3.3c-0.5,2.4-1.8,4.1-3.1,6c2.2,0.6,4,1.6,5.7,3.1C79.5,56.3,80.5,54.5,82,52.8z"
		/>
	<path class="st3" d="M70.6,40.7c0.4,0.6,1,0.7,1.6,0.5c1.9-0.8,1.9,0.2,1.6,1.6c-0.2,1.1-0.2,2.3-0.3,3.4c0,0.8-0.4,1.9,0.9,2
		c1.2,0.1,1.3-0.8,1.3-1.8c0-0.7,0.2-1.4,0.2-2.1c0.5-5.8,1.5-6.2-5.2-4C70.8,40.4,70.8,40.5,70.6,40.7z"/>
	<path class="st5" d="M193.2,285.2c33.1,7.8,52.1-22.7,39.3-45.8c3.8,0.5,7.6,0.8,11.3,0.1c1.6-0.3,3.3-0.6,4.9-0.9
		c12-2.2,19.1,5.9,15.4,17.7c-0.5,1.5-1.1,2.8-1.9,4.1c-3.9,5.8-11.7,5.5-15.2-0.6c-1.5-2.6-1-4.8,1.5-7c0.1,1,0.2,1.9,0.8,2.6
		c1.4,1.6,3.1,2.4,5.2,2s2.4-2.3,2.7-4c0.6-4.2-2.7-7.3-6.9-6.7c-6.3,0.9-10.2,8-7.8,14.3c1.2,3.2,3.4,5.6,6.1,7.4
		c1.6,1,1.4,1.9,0.5,3.1c-1.5,2-3.3,3.6-5.3,5.1c-9.8,6.9-20.5,11.5-32.6,12.3C204.9,289.1,198.9,288.1,193.2,285.2z"/>
	<path class="st5" d="M273.9,150.6c2.7,1.7,5.3,3.5,8.4,4.4c1.2,0.4,2.5,1,3.8,1c9.8-0.3,13.9,9.3,12.3,18.2
		c-0.5,3.1-1.9,5.8-3.6,8.2c-1.9,2.6-3.8,5.1-5.8,7.5c-8.2,9.7-13.6,20.4-12.4,33.5c-0.9,0-0.9-0.6-1.1-1c-4.6-10.7-5-21.7-1.7-32.8
		c0.3-1,0.8-1.9,1.2-2.8c0.8-1.5,1.8-2.1,3.6-2.1c9.1,0.2,14.8-8.7,10.9-17c-1.3-2.8-3.5-4-5.8-3.2c-2.5,0.8-4.9,4.7-4.5,7
		c0.7,3.2,4.1,4.3,6.8,2c0.3,2.5-0.7,4.1-3.1,5c-5.4,2.1-11-1.6-11.2-7.4c0-1.1-0.1-2.2,0.2-3.2
		C273.7,162.3,274.9,156.6,273.9,150.6L273.9,150.6z"/>
	<path class="st6" d="M165.1,242.9c1.6,0.6,3.1,1.3,4.7,1.9c0.5,0.4,0.9,1.2,1.7,0.7l0,0c-0.2,1,0.7,1.1,1.2,1.5
		c7.8,6.5,11.2,14.7,9.7,24.8c-1.9,12.8-13.9,22.5-26.7,21.8c-13.7-0.8-24.5-11.7-24.9-25.1c-0.2-6.5,2-12.2,5.7-17.4
		c1.1-0.4,2.2-0.5,3.4-0.3c0.4,1.3,1.6,2,2.5,2.9c0.6,0.6,1.2,0.5,1.7-0.1c1.9-2,4.5-3,6.9-4.2c3.7-1.3,5.9-3.7,5.6-7.9
		c2.3,0.2,4.5,0.3,6.8,0.5l0,0C163.7,242.8,164.5,242.6,165.1,242.9z"/>
	<path class="st6" d="M156.9,251.2c-9.1,0-16.5,7.3-16.5,16.3c0,8.8,7.5,16.7,16.1,16.6c9.7-0.1,16.9-7.3,16.9-16.6
		C173.3,258.5,165.9,251.2,156.9,251.2z"/>
	<path class="st6" d="M132.6,267.7c-0.2,1.6,0.3,3.3,0.6,5c0.2,1.2,0.9,1.8,2.1,1.3c1.2-0.5,3.5,0,3.2-2.3c-0.4-3-0.4-5.8,0.1-8.8
		c0.4-2.3-1.9-1.9-3.1-2.4c-1.3-0.5-1.9,0.1-2.1,1.3C132.9,263.7,132.5,265.6,132.6,267.7z"/>
	<path class="st6" d="M163.7,244.3c-1.4-0.1-1.5,1-1.7,1.9c-0.2,1.2-1.4,2.6,0.5,3.3c2.8,1.1,5.3,2.5,7.5,4.6
		c0.5,0.5,1.1,0.7,1.7,0.2c0.8-0.7,1.6-1.4,2.4-2.1c0.5-0.5,0.6-1,0.1-1.5C171.3,247.5,167.7,245.5,163.7,244.3z"/>
	<path class="st6" d="M152.3,287.1c0.1-0.9-0.5-1.2-1-1.4c-2.9-1.2-5.6-2.6-7.9-4.8c-0.6-0.5-1.1-0.6-1.7,0
		c-0.6,0.6-1.2,1.3-1.9,1.8c-0.9,0.8-0.7,1.4,0,2.1c2.8,2.8,6.1,4.7,9.9,6c0.6,0.2,1.2,0.4,1.4-0.4
		C151.6,289.3,152,288.1,152.3,287.1z"/>
	<path class="st6" d="M160.9,287.2c0.2,0.6,0.4,1.3,0.4,1.9c0.2,2,1.3,2.2,3,1.6c3.4-1.1,6.3-2.9,8.9-5.2c1-0.9,1-1.6,0.1-2.5
		c-0.6-0.5-1.1-1.1-1.7-1.7c-0.5-0.6-1.1-0.7-1.7-0.1c-2.3,2.2-5.1,3.5-8,4.5C161.2,286.1,160.7,286.4,160.9,287.2z"/>
	<path class="st6" d="M181.2,267.6c-0.1-1.1-0.1-2.2-0.2-3.2c-0.6-3.5-1.4-3.9-4.7-2.7c-0.8,0.3-1.2,0.7-0.9,1.6c0.9,3,0.5,6,0,9
		c-0.2,1,0.1,1.5,1,1.8c0.8,0.2,1.6,0.4,2.3,0.6c1.1,0.4,1.6-0.1,1.8-1.1C180.8,271.6,181.2,269.7,181.2,267.6z"/>
	<path class="st5" d="M63.9,175.2c-0.5,4.9,0.5,9.4,1.4,13.9c0.6,2.9-0.3,5.5-2.9,7.2s-5.4,1.4-8,0c-1.4-0.7-2.3-1.9-2.2-3.9
		c1.1,1.3,2.4,1.7,3.8,1.3c2.6-0.6,3.7-2.9,2.6-5.4c-1.1-2.3-3.7-4-5.8-3.8c-2.7,0.3-3.9,2.2-4.6,4.6c-2,6.6,2.5,12.7,9.5,13.2
		c5,0.3,5.8,0.8,7,5.7c2.5,10.3,1.2,20-4.4,29.1c-0.1-3.2,0.2-6.4-0.3-9.6c-1-6.7-4.2-12.4-8.4-17.6c-2.8-3.5-5.8-6.8-8.6-10.3
		c-2.7-3.4-4-7.3-3.4-11.7c0.7-5.2,3.8-8.7,9-9.9c1.3-0.3,2.7-0.5,4.1-0.6C56.4,176.9,60.1,176.5,63.9,175.2z"/>
	<path class="st5" d="M123.5,292c-4.1,3.2-9,4.6-14,5.1c-12.8,1.3-24.6-1.8-35.8-7.9c-0.6-0.3-1.1-0.7-1.6-1.1c-3-2.1-3-2.2-1-5.3
		c4.7-7.2,1.8-15.4-6-17.1c-2.7-0.6-4.8,0.4-5.8,2.6c-0.9,2.2,0.1,5.8,2,7c1.2,0.8,2.5,0.6,3.7-0.1c1.5-0.9,2.3-2.1,1.8-4.1
		c1.5,0.6,1.9,1.6,2,2.8c0.2,2.5-0.7,4.7-2.6,6.3c-1.9,1.6-4.2,1.9-6.5,0.9c-6.2-2.5-9.7-12.7-6.4-18.5c1.6-2.8,4.2-4.1,7.2-4.6
		c2.9-0.4,5.7-0.6,8.6-1c2.8-0.4,5.6-1.3,8.5-2.6c-1.6,4.9-2.2,9.5-1.5,14.2c2.2,14,14.6,25.2,28.8,25.9c6.4,0.4,12.5-1,18.5-2.8
		C123.4,291.9,123.4,291.9,123.5,292z"/>
	<path class="st5" d="M286.9,72.3c-3.4,0.5-6.3,2.1-9.2,3.7c-4,2.3-8.2,2.9-12.5,1.2c-8.9-3.5-17.8-3-26.7,0.1
		c-3,1.1-6.2,1.6-9.6,1.1c3.6-5.2,3.4-11.4,4.8-17.1c0.5-2,1-4.1,1.9-6c2.4-4.7,7-6.8,12.1-5.4c3,0.8,5.3,4.2,5.6,8.3
		c0.3,3.4-1.2,6.2-4,7.5c-1.9,0.9-3.2,0.9-5.3-0.3c2-0.5,3.3-1.6,3.8-3.5c0.5-2.2-0.8-3.7-3-3.6c-3.3,0.2-6.8,3.7-6.9,7
		c-0.1,2.2,1.3,3.9,3.8,4.7c4.9,1.7,11.2-0.3,14.4-5c1.4-2.1,2.9-2.1,4.8-1.6c3,0.8,5.8,2.1,8.7,3.3
		C275.2,69.1,280.9,71.1,286.9,72.3z"/>
	<path class="st5" d="M24.6,88.1c5.5-2.9,10.4-6.7,15.1-10.8c0.8-0.7,1.7-1.3,2.6-1.9c1.5-1,2.7-0.8,3.9,0.7c3.2,4,7.2,6.7,12.5,6.8
		c5.2,0.1,7.2-3.2,5.1-7.9c-1-2.2-2.4-4.1-4.7-5.3c-2.4-1.2-4.2,0-4.2,2.7c0.1,2.4,1.3,4.2,3.8,5.7c-1.1,0.9-2.3,0.8-3.5,0.4
		c-3.8-1.2-7-6.4-6.4-10.3c0.9-6.5,7.5-9.5,13.1-5.8c5,3.3,7,8.4,8.1,14.1c0.3,1.4,0.3,2.9,0.3,4.3c-0.1,3.9,0.2,7.7,3.3,11
		c-1.8,0.3-3-0.1-4.3-0.5c-0.6-0.2-1.3-0.3-1.8-0.6c-9.8-5.8-20.2-5.3-30.9-3.7C32.7,87.6,28.7,88.2,24.6,88.1L24.6,88.1z"/>
	<path class="st7" d="M211.4,233.7c0.1-0.6,0.6-1,1-1.4c9.1,4.1,14.5,11.1,15.3,21.1c0.7,9.4-3,16.9-10.7,22.3
		c-8.2,5.7-19.9,6.3-29.5-1c1.1-6.5,0.9-12.9-1.7-19.1c-1.3-3.1-3.2-5.9-5.6-9c3.7,0,7-0.5,10.3-1c-2.1,3-3.6,6.2-3.4,9.9
		c0.6,10.1,8.7,17.2,19.4,15c5.8-1.2,9.7-4.9,11.4-10.7c1.7-5.9,0.2-10.9-3.7-15.4c-2.5-2.8-6-3.8-9.4-4.9c0.8-0.6,1.5-1.4,2.5-1.7
		c1.9,0.5,3.8,1.3,5.5,2.4c0.6,0.4,1.1,0.8,1.9,0.1c2.6-2.3,2.5-3.5-0.4-5.1C213.4,234.6,212.4,234.2,211.4,233.7z"/>
	<path class="st7" d="M226.2,254.8c0.1-2.1-0.4-4.4-1.1-6.6c-1.4-4-1-3.4-4.7-1.8c-0.9,0.4-1.1,1-0.7,1.9c1.1,2.6,1.5,5.2,1.4,8
		c0,0.8,0.1,1.4,1,1.7C225.1,259,226.2,258.2,226.2,254.8z"/>
	<path class="st7" d="M218.6,265.5c-0.7,0-0.9,0.3-1.2,0.7c-1.8,2.2-4,3.9-6.4,5.4c-2.1,1.3,0.1,2.6,0.3,3.9
		c0.3,1.3,1.3,1.1,2.2,0.6c2.9-1.5,5.3-3.4,7.4-5.9c0.5-0.7,1.8-1.4,1-2.3C221,266.7,219.8,265.9,218.6,265.5z"/>
	<path class="st7" d="M202,275.6c0.1-2.2,0.1-2.3-2.1-2.7c-2.4-0.4-4.7-1.4-6.8-2.7c-2.4-1.4-2.4,1.3-3.4,2.2
		c-1,0.9-0.3,1.6,0.6,2.2c2.6,1.7,5.5,2.8,8.6,3.4C201.8,278.6,201.8,278.6,202,275.6z"/>
	<path class="st7" d="M126.5,258.9c-0.7,3.6-1.1,7.3-1,11c-1.2,2.4-2.6,4.6-4.7,6.4c-1,0.8-0.7,1.5,0,2.4c2.2,2.8,2.2,2.8,4.6,0.3
		c0.5-0.5,1-1,1.5-1.5c0.5,0.4,0.5,1,0.7,1.6c-0.4,0.5-0.9,1-1.3,1.4c-7.4,6.9-16.1,9.1-25.6,5.8c-9.4-3.2-15.1-10-16.5-19.9
		c-1.5-10.2,2.3-18.4,10.7-24.4c2.1,2.5,4.6,4.5,7.1,6.6c-5,2.1-7.9,6-8.7,11.2c-1.1,6.6,1.2,12.2,6.7,16c6.1,4.2,14.1,3.3,19.4-1.4
		c6.1-5.5,6.4-14.7,2.8-20.1c-0.3-0.5-0.5-1.2-0.8-1.7c0.9,0,1.7,0,2.6,0C125.1,254.5,126,256.6,126.5,258.9z"/>
	<path class="st7" d="M89.3,265c-3.6,0-4,0.6-3.1,3.9c0.8,2.8,2,5.4,3.8,7.7c0.7,0.9,1.4,1.7,2.4,0.6c0.8-1,3.5-1.3,1.9-3.5
		c-1.6-2.3-2.8-4.7-3.3-7.4C90.7,265.3,90.2,264.9,89.3,265z"/>
	<path class="st7" d="M97.4,247.9c-0.2-0.9-1.1-1.5-1.6-2.3c-0.8-1.4-1.6-1.5-2.9-0.3c-2.3,2.3-4.3,4.8-5.6,7.9
		c-0.5,1.2-0.9,2.3,0.8,2.7c1.3,0.3,2.8,2.2,3.9-0.5c1-2.4,2.5-4.5,4.5-6.3C96.9,248.8,97.3,248.5,97.4,247.9z"/>
	<path class="st7" d="M108.7,286c0.9,0,1.7-0.1,2.6-0.1c1.3,0,2.2-0.4,1.8-1.9c-0.4-1.3,0.5-3.5-2.2-3.3c-2.2,0.2-4.3,0.2-6.4-0.4
		c-3.1-0.8-3.1-0.7-4.2,2.3c-0.4,1.2-0.2,1.8,1,2.2C103.7,285.5,106.2,286,108.7,286z"/>
	<path class="st5" d="M37.6,181.3c-0.7,2-1.5,3.7-2,5.4c-1.5,5.1-0.4,9.8,2.6,14.2c2.5,3.4,5.5,6.3,8.3,9.4
		c2.9,3.3,5.4,6.8,6.4,11.1c0.2,0.8,0.3,1.7,0.5,2.9c-6.3-1.9-12.5-1.3-18.6-1.5c-3.9-0.1-7.4-3.4-8.2-7.2c-0.8-3.4,1.2-6.3,4.7-6.6
		c2.1-0.2,4,0.3,5.7,1.5c1,0.8,1.6,1.8,0.9,3c-0.3,0.6-0.8,1.6-1.5,0.2c-0.6-1.1-1.6-1.2-2.6-0.7c-1.1,0.6-1.3,1.7-0.9,2.8
		c0.6,1.8,1.9,2.8,3.8,3c2.1,0.2,3.7-0.6,4.7-2.4c1.6-2.8,0.7-6.8-2.2-9.1c-2.2-1.8-4.8-2.4-7.5-2.3c-1.4,0.1-2.3-0.4-2.9-1.7
		c-2.6-5.9-1.4-17.7,7.5-21.9C36.8,181.6,37.1,181.5,37.6,181.3z"/>
	<path class="st7" d="M195.5,244.3c1.7-0.7,3.4-1.4,5.1-2.1c1,0,2,0,3,0c5.1,0.1,10,3.7,11.7,8.5c1.7,4.7,1,9-2.1,12.8
		c-3.5,4.3-8.1,5.9-13.5,4.6c-6.5-1.5-10.9-8.7-9.6-15.3C190.9,249.2,193.1,246.7,195.5,244.3z"/>
	<path class="st7" d="M206.6,250.2c0-0.7,0.1-1.3,0-1.7c-0.6-1.8-2.2-1.6-3.6-1.5c-1.5,0.1-0.7,1.3-0.6,2c0.8,5.6,1,5.7,6.6,4.7
		c0.5-0.1,1-0.2,1.5-0.3c1-0.1,1.1-0.6,0.8-1.5C210.4,249.7,209.3,249.2,206.6,250.2z"/>
	<path class="st7" d="M198.1,252c-0.8-0.1-1.3-0.2-1.8-0.1c-1.5,0.1-2.6,1.9-2.2,3.6c0.4,1.7,1.6,0.5,2.4,0.5c0.9,0,1.8-0.3,2.8-0.5
		c2.3-0.5,2.9-1.4,2.6-3.6c-0.1-0.7-0.2-1.4-0.4-2.1c-0.2-0.8,0.1-2.1-0.8-2.3c-1-0.2-2.1,0.5-2.9,1.2
		C196.6,249.7,197.6,250.8,198.1,252z"/>
	<path class="st7" d="M199.6,260.2c-0.1,0.6-0.3,1.2-0.2,1.7c0.4,2,2.1,1.7,3.5,1.7c1.7,0,0.9-1.2,0.8-2c-1-5.7-1-5.8-7-4.6
		c-0.7,0.1-2.1-0.2-2,1c0.1,1.3,0.8,2.6,2.4,3.1C198,261.2,198.7,260.4,199.6,260.2z"/>
	<path class="st7" d="M207.9,258.6c1.5,0,2.9,0.5,3.5-1c0.4-1,1-2.3,0.3-3.1c-0.8-0.9-2.2,0-3.2,0.2c-4.7,0.8-4.8,1.1-3.9,6.3
		c0.5,2.5,0.8,2.6,3,1.4C209.3,261.4,209,260.2,207.9,258.6z"/>
	<path class="st7" d="M104.4,249.9c4.3,1.8,8.7,2.7,13.3,2.8c0.2,0.4,0.4,0.8,0.7,1.1c2.8,3,3.9,6.6,3.3,10.7
		c-0.8,5.5-4,9.3-9.2,10.9c-5.6,1.7-10.5,0.1-14.2-4.4c-3.5-4.2-3.9-8.9-1.7-14C98.3,253.5,101.2,251.5,104.4,249.9z"/>
	<path class="st7" d="M112.6,265.5c1.1-0.6,1.7,0.5,2.3,1c1.3,1,1.7,0.5,2.2-0.8c0.9-2.4-0.3-3.4-2.4-4.1c0.9-0.8,2-1.2,1.6-2.5
		c-0.4-1.1-1.1-2.3-2.2-2.5c-1.1-0.3-1.3,1.3-2,2c-0.3,0.4-0.6,0.8-0.9,1.2c-1.4,2.1-1.2,3,0.6,4.6
		C112.2,264.6,113,264.7,112.6,265.5c-0.5,0.2-0.8-0.2-1.1-0.4c-2.3-1.3-3.1-1.1-4.7,1.1c-0.3,0.5-0.7,0.9-1,1.4
		c-0.4,0.7-1.5,1.3-1,2.2c0.6,1,1.8,1.2,2.9,1.3c1.6,0.1,1.7-1.3,2.1-2.6c0.4,0.5,0.6,0.8,0.8,1c1.3,1.3,3.2,1.1,4.4-0.6
		c1.2-1.7-0.9-1.4-1.4-2.2C113.4,266.2,112.6,266.2,112.6,265.5z"/>
	<path class="st7" d="M107.7,256.7c-0.3-0.2-0.5-0.2-0.6-0.3c-0.7-1-1.5-1.9-2.8-1.3c-1,0.4-2.3,1-2.4,2s1.3,1.3,2.1,1.9
		c4.4,3,4.5,3,7.6-1.4c1.4-2.1,1.2-2.7-1.3-3.2C108.5,253.9,107.9,255,107.7,256.7z"/>
	<path class="st7" d="M102.9,263.6c-0.7,0.6-1.2,0.8-1.5,1.3c-1,1.7,0.4,2.6,1.4,3.6c1.1,1.2,1.4-0.2,1.9-0.8c3.5-4.7,3.5-5-1.4-8.3
		c-0.7-0.5-1.4-1.8-2.3-0.9s-1.2,2.3-0.7,3.6C100.7,263.2,101.8,263.2,102.9,263.6z"/>
	<path class="st8" d="M136.5,251.2c-3.7,5.2-5.8,10.9-5.7,17.4c0.4,13.3,11.2,24.3,24.9,25.1c12.8,0.8,24.8-9,26.7-21.8
		c1.5-10.1-1.8-18.3-9.7-24.8c-0.5-0.4-1.4-0.5-1.2-1.5c2.2-0.1,3.8,0.8,5.3,2.3c8.8,9.1,10.6,22.8,4.3,33.8
		c-6.3,10.9-19.1,16.2-31.2,13.1c-12.3-3.2-20.9-14-21.1-26.7c-0.1-5.2,1.2-10.1,3.8-14.7C133.5,251.8,134.6,250.9,136.5,251.2z"/>
	<path class="st9" d="M195.5,244.3c-2.4,2.4-4.6,4.9-5.3,8.4c-1.4,6.6,3,13.8,9.6,15.3c5.5,1.3,10-0.3,13.5-4.6
		c3.1-3.8,3.8-8.2,2.1-12.8c-1.7-4.8-6.6-8.4-11.7-8.5c-1,0-2,0-3,0c1.4-0.9,2.9-1.8,4.3-2.7c3.4,1,6.9,2,9.4,4.9
		c4,4.5,5.5,9.6,3.7,15.4c-1.7,5.8-5.6,9.5-11.4,10.7c-10.7,2.2-18.8-4.9-19.4-15c-0.2-3.6,1.3-6.9,3.4-9.9
		C192.3,245.1,193.9,244.7,195.5,244.3z"/>
	<path class="st3" d="M210.5,137c-2.4-13.8-3.3-27.5,3.2-40.5c0.2,0,0.5,0,0.7,0c0,0.7,0.1,1.3,0.1,2c0.1,2.8,0.3,5.7,1.7,8.2
		c1.1,2,1,3.7,0.5,5.7c-1.8,7.9-3.6,15.8-5.3,23.6c-0.1,0.3-0.2,0.7-0.3,1C210.9,137,210.7,137,210.5,137z"/>
	<path class="st10" d="M158.7,82.9c-0.6-2-2-3.6-3.1-5.4c-0.7-1.2-1.5-2.5-1.9-3.9c-0.8-2.6,0-4.9,2.1-5.9c2-1,4.3-0.4,5.7,2.1
		c0.9,1.6,1.5,2,3.2,0.8c2.2-1.7,4.6-1.3,6,0.4c1.5,1.8,1.3,4.3-0.6,6.3c-2.2,2.3-5.2,3.6-7.7,5.6C161.1,82.8,159.9,82.9,158.7,82.9
		z"/>
	<path class="st9" d="M104.4,249.9c-3.3,1.6-6.2,3.6-7.7,7.1c-2.2,5-1.8,9.8,1.7,14c3.7,4.4,8.6,6.1,14.2,4.4
		c5.2-1.6,8.4-5.4,9.2-10.9c0.6-4.1-0.5-7.7-3.3-10.7c-0.3-0.3-0.5-0.7-0.7-1.1c1.2,0,2.4-0.1,3.6-0.1c0.3,0.6,0.4,1.2,0.8,1.7
		c3.6,5.4,3.3,14.6-2.8,20.1c-5.2,4.7-13.3,5.6-19.4,1.4c-5.6-3.8-7.8-9.4-6.7-16c0.8-5.2,3.7-9.1,8.7-11.2
		C102.9,248.8,103.7,249.2,104.4,249.9z"/>
	<path class="st8" d="M94.8,242c-8.4,6-12.2,14.2-10.7,24.4c1.4,9.8,7.2,16.7,16.5,19.9c9.6,3.3,18.2,1.1,25.6-5.8
		c0.5-0.4,0.9-0.9,1.3-1.4c0.9,1.2,0.9,2.1-0.3,3.3C116.1,292.9,98,291.9,88,280c-9.9-11.8-7.8-29.7,4.3-38.9
		C93.9,239.9,94.3,240.9,94.8,242z"/>
	<path class="st8" d="M187.5,274.7c9.6,7.3,21.3,6.8,29.5,1c7.7-5.4,11.5-13,10.7-22.3c-0.8-10-6.2-17-15.3-21.1
		c0.6-1.4,1.3-1.7,2.8-0.9c13.6,6.8,18.7,24.1,11,37.4c-7.7,13.3-25.2,17.4-37.9,9C187,276.8,186.7,276,187.5,274.7z"/>
	<path class="st10" d="M97.8,60c-1,1.4-1.1,3.1-1.9,4.9c-3.4-3.3-7.4-5.6-12.3-6.7c2.1-2.3,3.8-4.6,5-7.2c0.8-1.6,0.6-4.2,2.1-4.6
		c0.9-0.3,2.6,1.9,4,2.9c0.8,0.6,1.8,1,2.7,1.4C97.9,53.7,97.9,56.9,97.8,60z"/>
	<path class="st11" d="M215.3,75.4c2.2-10,4.5-20,6.7-30c0.4-1.8,0.7-3.7,1.2-5.5c0.4-1.3-0.1-1.6-1.2-1.8
		c-10.6-2.4-21.2-4.8-31.8-7.2c-8-1.8-16-3.6-24-5.4c-0.2,0-0.4-0.1-0.6-0.2c-0.5-0.1-1.2-0.1-1.1-0.8c0.1-0.8,0.9-0.6,1.4-0.5
		c2.5,0.5,5.1,1.1,7.6,1.7c16.4,3.7,32.7,7.4,49.1,11c2.2,0.5,2.6,1.3,2.1,3.4c-2.6,11.3-5.1,22.6-7.6,34c-0.1,0.4-0.2,0.7-0.3,1
		C216.2,75.3,215.8,75.3,215.3,75.4z"/>
	<path class="st11" d="M118.5,130.7c-4.6,0.1-4.5,0.1-4.6-4.4c-0.3-11-0.5-21.9-1-32.9c-0.3-7.9-0.6-15.8-0.9-23.8
		c-0.3-7.5-0.7-15-0.8-22.5c0-0.4,0-0.7,0-1.1c0.1-0.6-0.3-1.5,0.6-1.6c0.9,0,0.7,0.9,0.7,1.5c0.1,3.1,0.2,6.2,0.4,9.3
		c0.3,5.6,0.3,11.2,0.5,16.9c0.4,9.9,0.6,19.9,1,29.8c0.3,7.7,0.7,15.4,0.8,23.1c0,0.1,0,0.1,0,0.2c0.1,3.7,0.1,3.7,3.7,4.2
		C118.8,129.9,118.7,130.3,118.5,130.7z"/>
	<path class="st11" d="M143.4,84.6c3.2-14.2,6.4-28.4,9.6-42.6c0.2-0.7,0.2-1.7,1.2-1.4c0.9,0.3,0.2,1.2,0.1,1.7
		c-2.2,9.8-4.5,19.7-6.6,29.5c-0.9,4.1-2.3,8.2-2.6,12.5C144.5,84.4,144,84.5,143.4,84.6z"/>
	<path class="st10" d="M191.6,84.6c-0.5-1-1.1-2-1.4-3.1c-0.8-2.5,0.2-4.6,2.3-5.7c1.9-0.9,3.9-0.2,5.4,1.8c0.4,0.6,0.7,1.2,1.1,1.9
		C196.4,81.2,194,82.9,191.6,84.6z"/>
	<path class="st11" d="M86.6,90.3c-2.6-8.8-5.2-17.7-7.7-26.6c-0.3-0.9-1.3-2.5-0.1-2.9c1.3-0.4,1.1,1.5,1.4,2.3
		c2.6,8.6,5.1,17.3,7.5,25.9c0.1,0.5,0.2,1,0.2,1.5C87.5,90.6,87.1,90.5,86.6,90.3z"/>
	<path class="st4" d="M126.9,277.4c-0.5,0.5-1,1-1.5,1.5c-2.4,2.5-2.5,2.5-4.6-0.3c-0.7-0.9-0.9-1.5,0-2.4c2.1-1.7,3.5-4,4.7-6.4
		C125.9,272.4,126.4,274.9,126.9,277.4z"/>
	<path class="st4" d="M211.4,233.7c1,0.5,1.9,0.9,2.9,1.4c2.9,1.6,3,2.9,0.4,5.1c-0.8,0.7-1.3,0.2-1.9-0.1c-1.7-1.1-3.5-1.8-5.5-2.4
		C208.7,236.4,210.1,235.1,211.4,233.7z"/>
	<path class="st11" d="M142.4,26.2c-7.7-0.2-15.3,0.5-22.9,0.7c-0.6,0-1.4,0.3-1.5-0.7c-0.1-0.8,0.7-0.8,1.3-0.8
		c7.8,0.1,15.6-0.9,23.4-0.5C142.6,25.3,142.5,25.8,142.4,26.2z"/>
	<path class="st10" d="M99,93.7c-1.8-0.7-3.6-1.3-5.6-2.1c2.2-2.2,3.8-4.7,5.2-7.4C98.8,87.4,98.9,90.6,99,93.7z"/>
	<path class="st11" d="M97,37.5c-5.1,1.5-10.1,2.9-15.2,4.4c-0.5,0.2-1.3,0.8-1.6-0.2c-0.2-0.7,0.6-0.9,1.1-1
		c5.2-1.5,10.4-3,15.6-4.4C97,36.6,97,37,97,37.5z"/>
	<path class="st4" d="M151,249.4c-2.4,1.2-5,2.2-6.9,4.2c-0.5,0.5-1.1,0.7-1.7,0.1c-0.9-0.9-2.1-1.6-2.5-2.9
		C143.5,249.8,147.3,250,151,249.4z"/>
	<path class="st4" d="M126.5,258.9c-0.5-2.3-1.5-4.4-2.7-6.4c1.7-0.5,3.5-0.5,5.6-0.5C128.4,254.4,127.5,256.7,126.5,258.9z"/>
	<path class="st8" d="M134.6,112.6c-2.5,1.4-4.6,2.9-6.9,4.7c0.4-2.1,0.8-3.8,1.2-5.4c0.2-0.8,0.5-0.8,1.2-0.6
		C131.4,111.9,132.9,112.2,134.6,112.6z"/>
	<path class="st8" d="M163.4,242.1c-2.3-0.2-4.5-0.3-6.8-0.5c-0.9-1.9-0.1-2.2,1.7-2.1C160.4,239.6,162.1,240.5,163.4,242.1z"/>
	<path class="st8" d="M129.5,78.4c0.2-2.2,1.1-3.5,2-4.7C131.3,75.3,131.8,77.2,129.5,78.4z"/>
	<path class="st8" d="M165.1,242.9c-0.6-0.2-1.4-0.1-1.8-0.8C164.1,242,164.6,242.4,165.1,242.9z"/>
	<path class="st8" d="M171.6,245.5c-0.9,0.5-1.2-0.4-1.7-0.7C170.4,245,171.2,244.9,171.6,245.5z"/>
	<path class="st12" d="M242.2,24.4c0.8,0.1,0.9,0.6,0.9,1.3C242.6,25.5,242.3,25,242.2,24.4z"/>
	<path class="st13" d="M23.3,249.5c-0.3-0.2-0.4-0.5-0.4-0.9C23,248.9,23.2,249.2,23.3,249.5z"/>
	<path class="st12" d="M64.9,22.4c0.2-0.4,0.5-0.5,0.9-0.5C65.5,22,65.2,22.2,64.9,22.4z"/>
	<path class="st5" d="M123.3,291.8c0.2-0.2,0.5-0.4,0.6-0.1c0.2,0.3-0.3,0.3-0.5,0.3C123.4,291.9,123.4,291.9,123.3,291.8z"/>
	<path class="st5" d="M273.9,150.6c-0.1,0-0.2,0-0.3,0c0-0.1,0-0.1,0-0.2C273.7,150.4,273.8,150.5,273.9,150.6L273.9,150.6z"/>
	<path class="st14" d="M169.9,310.6c-0.2,0.1-0.3,0.3-0.5,0.4C169.6,310.9,169.7,310.8,169.9,310.6z"/>
	<path class="st2" d="M265.7,50c0.1,0.2,0.2,0.3,0.3,0.5C266,50.3,265.9,50.1,265.7,50z"/>
	<path class="st5" d="M24.6,88.1L24.6,88.1L24.6,88.1z"/>
	<path class="st14" d="M107.4,311.1c-0.2,0.1-0.3,0.2-0.5,0.4C107.1,311.3,107.3,311.2,107.4,311.1z"/>
	<path class="st2" d="M290.8,216.9c-0.1,0.2-0.2,0.3-0.3,0.5C290.6,217.2,290.7,217.1,290.8,216.9z"/>
	<path class="st10" d="M203.8,59.7c-1-3.2-2.9-5.8-4.5-8.5c-0.8-1.4-1.6-2.9-1.8-4.6c-0.2-2.1,0.8-3.6,2.7-4.5s3.5-0.1,4.8,1.4
		c0.3,0.3,0.6,0.7,0.8,1.1c0.6,1.6,1.3,1.8,2.7,0.7c2.4-1.8,4.7-1.5,6.2,0.3c1.6,2,1.4,4.3-0.6,6.4c-1,1.1-2.3,2-3.6,2.8
		C208.1,56.1,205.8,57.5,203.8,59.7z"/>
	<path class="st10" d="M167.2,51.6c-1-3.3-2.9-5.8-4.5-8.4c-0.4-0.7-0.8-1.4-1.1-2.1c-1.4-3.1-0.8-5.7,1.6-7
		c2.3-1.2,4.4-0.3,6.3,2.9c0.6,1,1,1.2,1.9,0.4c0.6-0.5,1.3-0.9,2.1-1.2c1.8-0.7,3.4-0.5,4.7,1.1c1.2,1.6,1.4,3.3,0.4,5.1
		c-0.9,1.6-2.3,2.5-3.7,3.5C172.2,47.6,169.4,49,167.2,51.6z"/>
	<path class="st10" d="M184.7,58.9c1.1-0.6,2.1-1.4,3.2-1.8c1.7-0.7,3.5-0.5,4.7,1.1s1.4,3.3,0.4,5s-2.7,2.8-4.3,3.9
		c-2.4,1.6-5,2.9-7,5.3c-1-3.4-3.2-6.1-4.8-9c-0.3-0.5-0.6-1-0.8-1.5c-1.4-3.1-0.8-5.7,1.6-7c2.3-1.2,4.5-0.2,6.3,2.9
		C184.3,58.2,184.5,58.6,184.7,58.9z"/>
	<path class="st10" d="M155.4,38.2c-0.9-1.5-1.7-2.9-2.5-4.4c-0.6-1.2-1.1-2.5,0.2-3.5c1.4-1,2.5-0.3,3.2,0.9c0.6,1,1.1,0.2,1.6,0
		c1-0.5,2-0.5,2.7,0.5c0.7,1.1,0.5,2.1-0.4,2.9C158.7,35.9,157,37,155.4,38.2z"/>
	<path class="st7" d="M159.4,21.3c-0.8-0.9-2.5-0.3-2.8-2c1.7-0.1,3.2,0.5,4.7,0.9c1,0.3,1,1.1,0.4,1.9c-1.2,1.8-2.5,3.6-3.7,5.3
		c-0.4,0.7-1,0.8-1.7,0.4c-0.8-0.5-0.7-1.2-0.2-1.8C157.3,24.5,158.4,22.8,159.4,21.3z"/>
	<path class="st0" d="M35.5,147c0-2.6,0.1-7.4,0-12.3c0-1.4,0.3-1.9,1.8-2c2.5-0.1,5.1-0.1,7.5,0.6c6,1.6,10.1,5.2,11.4,11.4
		c1.4,6.8-0.8,12.4-6.2,16.7c-3.6,2.8-7.8,3.9-12.2,4.5c-1.5,0.2-1.2-0.9-1.3-1.6C36.2,159.4,35.9,154.3,35.5,147z"/>
	<path class="st0" d="M36.5,113.9c0-3.5,0.1-7.1,0-10.6c0-1.3,0.4-1.7,1.7-1.8c3.9-0.2,7.6,0,11.2,1.8c7,3.6,8.2,11.7,2.4,17.1
		c-4.2,4-9.5,5.1-15.1,5.8c-1.3,0.2-0.9-0.9-0.9-1.5c0-3.6,0-7.2,0-10.8C36,113.9,36.3,113.9,36.5,113.9z"/>
	<path class="st1" d="M125.9,43.1c-0.2-1.7-1.1-2.8-1.9-4c-1.2-1.9-1.1-3.7,0.4-5.1c1.3-1.2,3.3-1.4,4.8-0.3
		c1.6,1.2,1.9,3.1,0.8,5.2c-0.7,1.3-1.5,2.4-1.7,4.2c1.3-0.2,2.1-1,3-1.6c1.7-1.1,3.6-1,4.9,0.4c1.3,1.4,1.4,3.5,0.2,4.9
		c-1.2,1.5-3,1.8-4.8,0.7c-1.1-0.6-2.1-1.5-3.6-1.6c0,2.4,1,4.3,2.5,6.1c-1.7,0.5-3.2,0.3-4.8,0.4c-1,0.1-0.9-0.4-0.4-1
		c1-1.3,1.4-2.8,1.6-4.4c0.1-1-0.3-1.2-1.1-0.8c-0.9,0.5-1.7,1.1-2.5,1.6c-1.7,1.1-3.5,0.9-4.9-0.5c-1.2-1.3-1.3-3.4-0.2-4.8
		c1.2-1.5,3-1.8,4.8-0.9C123.8,42.2,124.5,43,125.9,43.1z"/>
	<path class="st1" d="M112.9,39.6c-0.4,1,0.6,1.7,0.6,2.6c-0.7,0.2-1.4,0.3-2.2,0.1c0-1,1-1.8,0.3-2.9c-1.2,0.4-2.4,2.1-3.7,0.3
		c-0.6-0.7-0.5-1.5,0.1-2.2c1.1-1.3,2.2-0.3,3.5,0.3c0.1-1.6-2.3-3.1-0.1-4.5c0.7-0.4,1.4-0.3,2,0.2c1.6,1.4-0.3,2.6-0.4,4.2
		c1.3-0.4,2.5-1.9,3.7-0.2c1,1.3-0.3,3.1-1.9,2.7C114.1,40.1,113.7,39.3,112.9,39.6z"/>
	<path class="st1" d="M108.6,22.6c1.7,0,3.2,0,4.6,0c1.2,0,1.7,0.6,1.2,1.8c-0.7,1.9-1.5,3.9-2.1,5.9c-0.3,0.8-0.7,1.3-1.5,1
		c-1.1-0.3-0.9-1.1-0.6-1.9c0.5-1.4,0.9-2.7,1.5-4c0.4-1,0.4-1.7-1-1.5C109.9,24,109.2,23.9,108.6,22.6z"/>
	<path class="st0" d="M158.5,136.1c-0.5,5.6-0.3,11.1,0.5,16.6c0.2,1.4-0.1,1.8-1.5,2c-10.9,1.1-18.8-7.8-16.6-18.7
		c1.6-8,8-13.8,16.1-14.9c1.5-0.2,2.2,0,2.1,1.8c-0.1,4.4,0,8.8,0,13.2C158.9,136.1,158.7,136.1,158.5,136.1z"/>
	<path class="st1" d="M152,130.4c-1.6,1.1-2.4,2.4-3.2,3.6c-1,1.6-0.7,2.3,1.2,2.7c1.4,0.3,1.8,0,1.8-1.4
		C151.7,133.8,151.9,132.3,152,130.4z"/>
	<path class="st0" d="M130,218.1c-0.3,5.8-0.4,11.7,0.6,17.5c0.2,1.4-0.5,1.3-1.4,1.4c-11.5,1.4-19.7-8.5-16.4-20.1
		c2.1-7.3,8.3-12.6,15.9-13.5c1.7-0.2,2,0.3,2,1.9c-0.1,4.2,0,8.5,0,12.7C130.4,218.1,130.2,218.1,130,218.1z"/>
	<path class="st7" d="M82,52.8c-1.5,1.7-2.5,3.5-3.2,5.8c-1.7-1.5-3.5-2.5-5.7-3.1c1.3-1.9,2.6-3.6,3.1-6
		C77.9,51.2,79.8,52.2,82,52.8z"/>
	<path class="st7" d="M70.6,40.7c0.1-0.2,0.1-0.3,0.2-0.3c6.7-2.2,5.7-1.9,5.2,4c-0.1,0.7-0.2,1.4-0.2,2.1c-0.1,0.9-0.1,1.9-1.3,1.8
		c-1.3-0.1-1-1.2-0.9-2c0.1-1.1,0.1-2.3,0.3-3.4c0.2-1.4,0.2-2.4-1.6-1.6C71.6,41.4,71.1,41.3,70.6,40.7z"/>
	<path class="st15" d="M156.9,251.2c9,0,16.4,7.3,16.4,16.3c0,9.3-7.2,16.5-16.9,16.6c-8.5,0.1-16.1-7.8-16.1-16.6
		C140.4,258.5,147.8,251.2,156.9,251.2z"/>
	<path class="st15" d="M170.7,267.7c0-7.5-6.1-13.8-13.4-13.9c-7.8-0.1-14.3,6-14.2,13.6s5.3,14,14,14
		C164.8,281.4,170.5,275.3,170.7,267.7z"/>
	<path class="st11" d="M132.6,267.7c-0.1-2.1,0.3-4,0.7-5.9c0.3-1.2,0.9-1.9,2.1-1.3c1.2,0.5,3.5,0.1,3.1,2.4
		c-0.4,2.9-0.5,5.8-0.1,8.8c0.3,2.3-2,1.8-3.2,2.3s-1.9-0.1-2.1-1.3C132.8,271,132.4,269.3,132.6,267.7z"/>
	<path class="st11" d="M134.3,267.6c0.1,1.3-0.1,2.6,0.3,3.9c0.3,0.9,0.8,1.1,1.6,1s1.2-0.7,1.1-1.4c-0.5-2.5-0.5-5,0-7.5
		c0.2-0.9-0.4-1.3-1.2-1.5c-0.9-0.1-1.2,0.4-1.4,1.2C134.4,264.7,134.2,266.1,134.3,267.6z"/>
	<path class="st11" d="M163.7,244.3c4,1.2,7.6,3.2,10.5,6.4c0.5,0.5,0.4,1.1-0.1,1.5c-0.8,0.7-1.6,1.4-2.4,2.1
		c-0.6,0.5-1.2,0.3-1.7-0.2c-2.2-2.1-4.7-3.5-7.5-4.6c-1.9-0.7-0.7-2.2-0.5-3.3C162.2,245.3,162.3,244.2,163.7,244.3z"/>
	<path class="st11" d="M164.3,246.2c-0.9-0.1-1.1,0.4-1.3,0.9c-0.2,0.6-0.3,1.4,0.4,1.7c2.5,0.9,4.6,2.4,6.7,3.9
		c0.7,0.5,1.4,0.2,1.9-0.4c0.6-0.7,0.4-1.4-0.3-1.8c-1.3-1-2.7-2-4.1-2.8C166.6,247,165.3,246.6,164.3,246.2z"/>
	<path class="st11" d="M152.3,287.1c-0.3,1-0.7,2.2-1.1,3.3c-0.3,0.8-0.9,0.6-1.4,0.4c-3.8-1.2-7.1-3.1-9.9-6
		c-0.8-0.8-0.9-1.4,0-2.1c0.7-0.6,1.3-1.2,1.9-1.8c0.6-0.6,1.1-0.6,1.7,0c2.3,2.2,5,3.6,7.9,4.8
		C151.8,285.9,152.4,286.2,152.3,287.1z"/>
	<path class="st11" d="M150.7,287.5c0.1-0.7-0.2-1-0.9-1.3c-2.2-1-4.4-2.1-6.2-3.8c-0.7-0.6-1.2-0.5-1.9,0.1c-0.7,0.7-0.6,1.3,0.1,2
		c2,2,4.6,3.2,7.2,4.2C150.1,289.2,150.7,288.6,150.7,287.5z"/>
	<path class="st11" d="M160.9,287.2c-0.1-0.8,0.3-1.1,1-1.4c2.9-1,5.8-2.3,8-4.5c0.6-0.6,1.1-0.5,1.7,0.1c0.6,0.6,1.1,1.2,1.7,1.7
		c1,0.9,1,1.6-0.1,2.5c-2.6,2.3-5.5,4.1-8.9,5.2c-1.7,0.6-2.8,0.4-3-1.6C161.2,288.5,161,287.9,160.9,287.2z"/>
	<path class="st11" d="M163.8,289.3c2.6-1.3,5.7-2.3,7.9-4.7c0.5-0.5,0.3-1.1-0.2-1.5c-0.5-0.5-1-0.9-1.7-0.4
		c-2.1,1.6-4.4,3-6.9,3.8c-0.7,0.2-0.8,0.7-0.5,1.4C162.6,288.6,162.7,289.2,163.8,289.3z"/>
	<path class="st11" d="M181.2,267.6c0,2-0.4,4-0.8,6c-0.2,1-0.7,1.5-1.8,1.1c-0.7-0.3-1.5-0.4-2.3-0.6c-0.9-0.3-1.2-0.7-1-1.8
		c0.6-3,1-6,0-9c-0.3-0.9,0.1-1.3,0.9-1.6c3.3-1.3,4.1-0.9,4.7,2.7C181.1,265.4,181.1,266.5,181.2,267.6z"/>
	<path class="st11" d="M179.4,267.6c-0.1-1.3,0.2-2.8-0.3-4.2c-0.3-0.7-0.6-0.9-1.3-0.6c-0.6,0.2-1.5,0.1-1.3,1.1
		c0.5,2.7,0.5,5.3-0.1,7.9c-0.2,1,0.7,1.1,1.3,1.4c0.9,0.3,1.1-0.2,1.3-0.9C179.5,270.7,179.4,269.2,179.4,267.6z"/>
	<path class="st11" d="M226.2,254.8c0,3.4-1.1,4.2-4.2,3.2c-0.9-0.3-1-0.9-1-1.7c0.2-2.8-0.3-5.5-1.4-8c-0.4-0.9-0.2-1.5,0.7-1.9
		c3.7-1.6,3.4-2.2,4.7,1.8C225.8,250.4,226.3,252.7,226.2,254.8z"/>
	<path class="st11" d="M224.5,253.5c0.1-1.7-0.5-3.7-1.2-5.7c-0.3-0.7-0.6-1.1-1.4-0.7c-0.6,0.3-1.5,0.6-1,1.5
		c1,2.2,1.1,4.4,1.1,6.7c0,0.9,0.4,1.5,1.4,1.5s1.2-0.6,1.2-1.4C224.5,254.9,224.5,254.4,224.5,253.5z"/>
	<path class="st11" d="M218.6,265.5c1.2,0.4,2.4,1.2,3.2,2.2s-0.4,1.7-1,2.3c-2,2.5-4.5,4.4-7.4,5.9c-1,0.5-1.9,0.8-2.2-0.6
		c-0.3-1.3-2.4-2.6-0.3-3.9c2.4-1.5,4.7-3.1,6.4-5.4C217.7,265.8,218,265.5,218.6,265.5z"/>
	<path class="st11" d="M220.1,268.1c-0.1-0.4-0.4-0.7-0.9-1s-0.9-0.3-1.4,0.1c-1.8,1.7-3.4,3.6-5.8,4.8c-0.8,0.4-0.4,2.1,0.4,2.4
		C213.7,274.8,220.1,269.6,220.1,268.1z"/>
	<path class="st11" d="M202,275.6c-0.2,2.9-0.2,2.9-3,2.4c-3.1-0.5-5.9-1.7-8.6-3.4c-0.9-0.6-1.6-1.3-0.6-2.2c1-0.9,1-3.5,3.4-2.2
		c2.1,1.2,4.3,2.2,6.8,2.7C202.1,273.4,202.1,273.4,202,275.6z"/>
	<path class="st11" d="M200.6,275.5c0.1-0.9-0.4-1.5-1.3-1.6c-2.1-0.4-4.1-1.2-6-2.3c-0.7-0.4-1.3-0.4-1.8,0.4
		c-0.6,0.9-0.2,1.5,0.5,2c2.2,1.4,4.7,2.1,7.2,2.7C200.2,276.9,200.7,276.5,200.6,275.5z"/>
	<path class="st11" d="M89.3,265c0.9-0.1,1.4,0.3,1.6,1.2c0.6,2.7,1.7,5.2,3.3,7.4c1.6,2.2-1.1,2.5-1.9,3.5c-1,1.2-1.7,0.3-2.4-0.6
		c-1.8-2.3-3-4.9-3.8-7.7C85.3,265.6,85.7,265,89.3,265z"/>
	<path class="st11" d="M93.3,274.2c-1.7-2.2-2.4-5-3.6-7.6c-0.2-0.5-1.1-0.3-1.6-0.1c-0.6,0.2-0.7,0.7-0.5,1.2
		c0.6,2.8,1.8,5.3,3.4,7.6c0.3,0.4,0.7,0.7,1.3,0.4C92.8,275.4,93.2,275,93.3,274.2z"/>
	<path class="st11" d="M97.4,247.9c-0.1,0.6-0.5,0.9-0.9,1.2c-1.9,1.8-3.5,3.8-4.5,6.3c-1,2.6-2.6,0.7-3.9,0.5
		c-1.7-0.4-1.3-1.5-0.8-2.7c1.3-3,3.3-5.5,5.6-7.9c1.2-1.2,2-1.1,2.9,0.3C96.3,246.4,97.2,247,97.4,247.9z"/>
	<path class="st11" d="M90.3,255.4c0.4,0,0.7-0.1,0.9-0.5c1-2.4,2.7-4.4,4.4-6.3c0.5-0.6,0.2-1-0.2-1.5c-0.5-0.5-1-0.8-1.7-0.2
		c-2,1.9-3.6,4.1-4.7,6.6C88.4,254.8,89.4,255.1,90.3,255.4z"/>
	<path class="st11" d="M108.7,286c-2.5,0.1-5-0.4-7.4-1.2c-1.3-0.4-1.5-1-1-2.2c1.1-3,1-3.1,4.2-2.3c2.1,0.5,4.3,0.6,6.4,0.4
		c2.7-0.2,1.9,2,2.2,3.3c0.4,1.5-0.5,1.9-1.8,1.9C110.5,285.9,109.6,285.9,108.7,286z"/>
	<path class="st11" d="M108.7,284.7v-0.1c0.3,0,0.6,0.1,0.9,0c0.9-0.2,2.2,0,2.2-1.5c0-1.6-1.3-1.4-2.3-1.4c-2,0-4,0.1-6-0.6
		c-1.3-0.4-1.5,0.5-1.8,1.3c-0.4,1.1,0.5,1.3,1.1,1.4C104.8,284.1,106.7,284.3,108.7,284.7z"/>
	<path class="st8" d="M206.6,250.2c2.7-1,3.8-0.5,4.7,1.8c0.3,0.9,0.2,1.4-0.8,1.5c-0.5,0.1-1,0.2-1.5,0.3c-5.6,1-5.8,0.8-6.6-4.7
		c-0.1-0.7-0.9-1.9,0.6-2c1.4-0.1,3-0.3,3.6,1.5C206.8,249,206.6,249.5,206.6,250.2z"/>
	<path class="st8" d="M203.7,249.3c0,3.5,0.9,4.2,4.2,3.4c0.2-0.1,0.4-0.1,0.6-0.2c0.5-0.2,1.5,0,1.1-1c-0.3-0.9-1.1-1-2-0.6
		c-0.8,0.4-1.5,1.7-2.3,1.2c-1-0.6,0.2-1.6,0.2-2.5c0-0.8-0.2-1.2-1-1.3C203.6,248.2,203.6,248.7,203.7,249.3z"/>
	<path class="st8" d="M198.1,252c-0.6-1.2-1.5-2.2-0.3-3.3c0.8-0.7,1.9-1.4,2.9-1.2c0.9,0.2,0.6,1.5,0.8,2.3
		c0.2,0.7,0.3,1.4,0.4,2.1c0.3,2.2-0.4,3.1-2.6,3.6c-0.9,0.2-1.8,0.4-2.8,0.5c-0.8,0-2,1.2-2.4-0.5c-0.4-1.7,0.7-3.5,2.2-3.6
		C196.8,251.8,197.3,251.9,198.1,252z"/>
	<path class="st8" d="M196.9,254.7c4-0.2,4.6-1,3.5-4.5c-0.2-0.5-0.1-1.5-1.2-0.9c-0.7,0.3-1,0.8-0.6,1.6s1.8,1.4,1.2,2.3
		c-0.6,0.9-1.7-0.2-2.6-0.2c-0.1,0-0.1,0-0.2,0c-0.9-0.1-1.5,0.3-1.5,1.2C195.5,255.2,196.4,254.6,196.9,254.7z"/>
	<path class="st8" d="M199.6,260.2c-0.9,0.2-1.7,1.1-2.6,0.8c-1.5-0.4-2.2-1.8-2.4-3.1c-0.1-1.1,1.3-0.8,2-1c6-1.2,6-1.1,7,4.6
		c0.1,0.8,0.9,2-0.8,2c-1.4,0-3,0.3-3.5-1.7C199.4,261.4,199.6,260.8,199.6,260.2z"/>
	<path class="st8" d="M200.1,257.4c-0.6,0.1-1.5,0.3-2.3,0.5c-0.5,0.2-1.2,0-1.5,0.7c-0.2,0.5,0.2,0.8,0.5,1.1
		c0.6,0.4,1.1,0.1,1.6-0.1c0.8-0.3,1.5-1.7,2.3-1c0.8,0.6-0.2,1.6-0.3,2.4c-0.1,0.6,0,1.2,0.7,1.3c0.3,0.1,0.8,0.3,1-0.1
		c0.4-1.3-0.1-2.5-0.4-3.8C201.7,257.6,201.1,257.3,200.1,257.4z"/>
	<path class="st8" d="M207.9,258.6c1.1,1.5,1.4,2.7-0.3,3.7c-2.2,1.2-2.5,1.1-3-1.4c-0.9-5.1-0.8-5.5,3.9-6.3
		c1.1-0.2,2.4-1.1,3.2-0.2c0.7,0.8,0.2,2.1-0.3,3.1C210.8,259.1,209.4,258.6,207.9,258.6z"/>
	<path class="st8" d="M209.6,255.8c-0.7,0.1-1.2,0.1-1.7,0.2c-2.6,0.3-2.9,0.7-2.4,3.3c0.1,0.4,0.2,0.8,0.3,1.3s0.1,1.1,0.9,0.8
		c0.6-0.2,1.4-0.8,0.8-1.4c-2.4-3-1-3,1.7-2.3c0.8,0.2,1.4-0.4,1.4-1.2C210.6,255.4,209.9,255.8,209.6,255.8z"/>
	<path class="st8" d="M112.6,265.5c0.4-0.8-0.4-0.9-0.7-1.2c-1.9-1.6-2-2.5-0.6-4.6c0.3-0.4,0.5-0.9,0.9-1.2c0.7-0.7,0.8-2.2,2-2
		c1.1,0.3,1.8,1.4,2.2,2.5c0.4,1.3-0.7,1.7-1.6,2.5c2,0.7,3.3,1.7,2.4,4.1c-0.5,1.3-0.9,1.8-2.2,0.8
		C114.3,266,113.7,264.9,112.6,265.5L112.6,265.5z"/>
	<path class="st8" d="M116.2,264.1c0-0.6-0.2-1-0.9-1.1c-3.1-0.5-3.8-1.2-0.5-2.9c0.8-0.4,0.2-1.1-0.2-1.6c-0.6-0.6-0.8,0-1.1,0.3
		c-2.7,2.9-2.6,3.6,0.9,5.6c0.2,0.1,0.5,0.3,0.7,0.5C115.9,265.4,116.1,264.9,116.2,264.1z"/>
	<path class="st8" d="M112.6,265.5c0,0.7,0.8,0.7,1.1,1.2c0.5,0.7,2.6,0.5,1.4,2.2c-1.3,1.7-3.1,1.9-4.4,0.6c-0.3-0.2-0.5-0.5-0.8-1
		c-0.4,1.2-0.5,2.7-2.1,2.6c-1.1-0.1-2.3-0.3-2.9-1.3c-0.5-0.8,0.6-1.5,1-2.2c0.3-0.5,0.6-1,1-1.4c1.6-2.2,2.4-2.4,4.7-1.1
		C111.8,265.3,112.1,265.7,112.6,265.5L112.6,265.5z"/>
	<path class="st8" d="M113.5,268.1c-0.8-0.6-1.6-1.2-2.5-1.9c-1.3-1.1-2.3-0.9-3.2,0.5c-0.3,0.6-0.7,1.1-1.1,1.6s-0.6,1,0.2,1.3
		c0.6,0.2,1.4,0.3,1.4-0.4c0.5-5,1.8-2,3-0.4c0.3,0.4,0.8,0.6,1.3,0.2C113.2,268.9,113.5,268.7,113.5,268.1z"/>
	<path class="st8" d="M107.7,256.7c0.2-1.7,0.8-2.8,2.7-2.4c2.5,0.5,2.7,1.2,1.3,3.2c-3,4.4-3.2,4.4-7.6,1.4
		c-0.8-0.6-2.2-0.9-2.1-1.9s1.3-1.6,2.4-2c1.4-0.5,2.2,0.3,2.8,1.3C107.2,256.5,107.4,256.5,107.7,256.7z"/>
	<path class="st8" d="M104.9,256c-0.3,0.2-0.8,0.4-0.9,0.8c-0.3,0.5,0.3,0.7,0.6,0.9c0.6,0.5,1.2,0.9,1.7,1.3c1.3,1.2,2.4,1,3.3-0.5
		c0.3-0.6,0.7-1.1,1.1-1.6c0.3-0.5,0.5-0.9-0.2-1.2c-0.6-0.2-1.2-0.3-1.5,0.4c-0.2,0.5-0.2,1.1-0.3,1.7c-0.1,0.5,0,1.1-0.7,1.2
		c-0.5,0-0.7-0.5-0.9-0.8C106.4,257.3,106.2,256.2,104.9,256z"/>
	<path class="st8" d="M102.9,263.6c-1.1-0.4-2.2-0.4-2.7-1.5c-0.5-1.3-0.2-2.7,0.7-3.6c0.9-0.9,1.6,0.5,2.3,0.9
		c4.9,3.3,4.9,3.6,1.4,8.3c-0.4,0.6-0.7,2-1.9,0.8c-1-1-2.4-1.9-1.4-3.6C101.7,264.4,102.2,264.2,102.9,263.6z"/>
	<path class="st8" d="M103.2,267.1c0.2-0.1,0.3-0.2,0.4-0.3c2.5-1.4,2.5-4.1,0.2-5.7c-0.2-0.2-0.5-0.3-0.7-0.5
		c-0.5-0.2-0.9-0.9-1.5-0.5c-0.2,0.1-0.3,0.6-0.3,1c0,0.8,0.6,1.1,1.2,1.3c0.8,0.3,2.1,0,2.3,0.8c0.3,1.2-1.3,1.1-1.9,1.7
		c-0.4,0.4-0.8,0.7-0.5,1.3C102.6,266.5,102.9,266.8,103.2,267.1z"/>
	<path class="st8" d="M152,130.4c-0.1,1.9-0.3,3.4-0.3,4.9c0,1.4-0.4,1.6-1.8,1.4c-1.9-0.4-2.2-1.1-1.2-2.7
		C149.6,132.7,150.3,131.5,152,130.4z"/>
	<path class="st6" d="M170.7,267.7c-0.2,7.6-5.8,13.7-13.7,13.7c-8.7,0-13.9-6.4-14-14s6.4-13.6,14.2-13.6
		C164.6,253.9,170.7,260.2,170.7,267.7z"/>
	<path class="st6" d="M151.9,263c-0.1,0-0.3-0.1-0.4-0.1c-1.1-0.3-2.2-0.4-2.9,0.7c-0.6,0.9-1.3,2-0.8,3c0.5,1.1,1.8,0.5,2.8,0.5
		c5.7,0.1,5.8-0.1,5.8-5.8c0-2.5-0.6-2.8-2.9-2c-1.8,0.7-1.7,1.9-1.3,3.3C152.1,262.8,152,262.9,151.9,263z"/>
	<path class="st6" d="M161.6,262.9c0.1-0.7,0.3-1.3,0.2-1.8c-0.4-1.8-1.9-1.9-3.4-2.1c-1.6-0.1-1.1,1.2-1.1,2c-0.1,6,0,6.2,6.3,6.1
		c0.8,0,2.3,0.7,2.3-1c0-1.5-0.5-3.1-2.4-3.4C163,262.7,162.5,262.9,161.6,262.9z"/>
	<path class="st6" d="M161.1,271.8c0.6,0.2,0.8,0.2,1,0.3c1.1,0.5,2.2,0.6,3-0.4c0.7-0.9,1.4-2.2,0.9-3.2c-0.4-1-1.8-0.3-2.8-0.4
		c-0.1,0-0.1,0-0.2,0c-5.6,0-5.7,0.1-5.7,5.7c0,2.6,0.5,2.9,2.9,2C162.2,275,162.1,273.7,161.1,271.8z"/>
	<path class="st6" d="M152.3,272.1c-0.1,0.6-0.4,1.1-0.4,1.6c0.1,2.1,1.9,2.1,3.3,2.4c1.7,0.3,1.1-1.1,1.2-1.9
		c0.1-6.1,0.1-6.1-6-6.1c-0.5,0-1,0-1.5,0c-1-0.1-1.2,0.5-1.1,1.3C148.1,271.9,149.3,272.7,152.3,272.1z"/>
	<path class="st3" d="M134.3,267.6c-0.1-1.5,0.1-2.9,0.4-4.3c0.2-0.9,0.5-1.3,1.4-1.2c0.9,0.1,1.4,0.6,1.2,1.5c-0.5,2.5-0.5,5,0,7.5
		c0.1,0.7-0.3,1.2-1.1,1.4c-0.8,0.2-1.3-0.1-1.6-1C134.2,270.2,134.3,268.9,134.3,267.6z"/>
	<path class="st3" d="M164.3,246.2c1,0.4,2.2,0.8,3.3,1.4c1.4,0.8,2.8,1.8,4.1,2.8c0.6,0.5,0.9,1.1,0.3,1.8c-0.5,0.6-1.1,1-1.9,0.4
		c-2.1-1.5-4.2-3-6.7-3.9c-0.7-0.3-0.6-1-0.4-1.7C163.2,246.6,163.4,246.1,164.3,246.2z"/>
	<path class="st3" d="M150.8,287.5c-0.1,1.1-0.7,1.7-1.7,1.3c-2.6-1-5.1-2.2-7.2-4.2c-0.7-0.7-0.8-1.3-0.1-2
		c0.6-0.6,1.2-0.7,1.9-0.1c1.8,1.7,4,2.8,6.2,3.8C150.5,286.5,150.8,286.8,150.8,287.5z"/>
	<path class="st3" d="M163.8,289.3c-1.1-0.1-1.2-0.7-1.4-1.3c-0.2-0.6-0.1-1.2,0.5-1.4c2.6-0.8,4.8-2.2,6.9-3.8
		c0.7-0.5,1.2-0.1,1.7,0.4c0.4,0.5,0.7,1,0.2,1.5C169.5,287,166.4,288,163.8,289.3z"/>
	<path class="st3" d="M179.4,267.6c0,1.6,0.1,3.1-0.4,4.6c-0.2,0.7-0.4,1.2-1.3,0.9c-0.7-0.2-1.5-0.4-1.3-1.4
		c0.5-2.6,0.6-5.3,0.1-7.9c-0.2-0.9,0.7-0.9,1.3-1.1c0.7-0.2,1.1-0.1,1.3,0.6C179.6,264.8,179.3,266.3,179.4,267.6z"/>
	<path class="st3" d="M224.5,253.5c0,0.9,0,1.4,0,1.9c0,0.8-0.1,1.4-1.2,1.4c-1,0-1.4-0.5-1.4-1.5c0-2.3-0.1-4.6-1.1-6.7
		c-0.4-1,0.4-1.2,1-1.5c0.8-0.4,1.2,0,1.4,0.7C224,249.8,224.6,251.8,224.5,253.5z"/>
	<path class="st3" d="M220.1,268.1c0.1,1.5-6.4,6.7-7.6,6.3c-0.9-0.3-1.2-2-0.4-2.4c2.3-1.1,4-3,5.8-4.8c0.4-0.4,0.9-0.5,1.4-0.1
		C219.6,267.4,220,267.7,220.1,268.1z"/>
	<path class="st3" d="M200.6,275.5c0,1-0.4,1.4-1.4,1.2c-2.5-0.6-5-1.3-7.2-2.7c-0.8-0.5-1.1-1.1-0.5-2c0.5-0.8,1.1-0.8,1.8-0.4
		c1.9,1,3.9,1.8,6,2.3C200.2,274,200.8,274.5,200.6,275.5z"/>
	<path class="st3" d="M93.3,274.2c-0.1,0.8-0.5,1.2-1.1,1.4c-0.6,0.3-1,0-1.3-0.4c-1.7-2.3-2.8-4.8-3.4-7.6c-0.1-0.5-0.1-1,0.5-1.2
		s1.4-0.4,1.6,0.1C91,269.2,91.7,272,93.3,274.2z"/>
	<path class="st3" d="M90.3,255.4c-0.9-0.3-1.9-0.5-1.3-1.9c1.1-2.5,2.7-4.7,4.7-6.6c0.7-0.6,1.1-0.3,1.7,0.2
		c0.4,0.4,0.8,0.8,0.2,1.5c-1.7,2-3.4,3.9-4.4,6.3C91.1,255.3,90.7,255.4,90.3,255.4z"/>
	<path class="st8" d="M108.7,284.7c-2-0.3-3.9-0.6-5.9-1c-0.7-0.1-1.5-0.3-1.1-1.4c0.3-0.8,0.5-1.7,1.8-1.3c1.9,0.7,4,0.6,6,0.6
		c1.1,0,2.3-0.2,2.3,1.4c0,1.5-1.3,1.3-2.2,1.5c-0.3,0.1-0.6,0-0.9,0C108.7,284.6,108.7,284.6,108.7,284.7z"/>
	<path class="st7" d="M203.7,249.3c-0.1-0.6,0-1.2,0.8-1.1c0.8,0.1,1,0.6,1,1.3c0,0.9-1.2,1.9-0.2,2.5c0.8,0.5,1.5-0.8,2.3-1.2
		s1.6-0.4,2,0.6c0.4,1.1-0.6,0.8-1.1,1c-0.2,0.1-0.4,0.1-0.6,0.2C204.5,253.6,203.6,252.9,203.7,249.3z"/>
	<path class="st7" d="M196.9,254.7c-0.5-0.1-1.4,0.5-1.3-0.7c0-0.9,0.6-1.2,1.5-1.2c0.1,0,0.1,0,0.2,0c0.9,0,2,1,2.6,0.2
		c0.6-0.9-0.8-1.5-1.2-2.3s-0.1-1.2,0.6-1.6c1.1-0.5,1,0.4,1.2,0.9C201.5,253.7,200.9,254.5,196.9,254.7z"/>
	<path class="st7" d="M200.1,257.4c1-0.1,1.5,0.2,1.7,1c0.3,1.2,0.8,2.5,0.4,3.8c-0.1,0.4-0.6,0.2-1,0.1c-0.7-0.2-0.8-0.7-0.7-1.3
		c0.1-0.8,1.1-1.8,0.3-2.4c-0.9-0.6-1.5,0.7-2.3,1c-0.5,0.2-1,0.6-1.6,0.1c-0.3-0.3-0.7-0.6-0.5-1.1c0.2-0.7,1-0.5,1.5-0.7
		C198.7,257.7,199.5,257.5,200.1,257.4z"/>
	<path class="st7" d="M209.6,255.8c0.3,0,1-0.4,1,0.6c0,0.9-0.6,1.4-1.4,1.2c-2.7-0.7-4-0.6-1.7,2.3c0.5,0.7-0.2,1.2-0.8,1.4
		c-0.8,0.3-0.8-0.3-0.9-0.8c-0.1-0.4-0.2-0.8-0.3-1.3c-0.5-2.6-0.2-3,2.4-3.3C208.3,255.9,208.8,255.9,209.6,255.8z"/>
	<path class="st7" d="M116.2,264.1c-0.1,0.7-0.2,1.3-1.2,0.8c-0.3-0.1-0.5-0.3-0.7-0.5c-3.4-2-3.5-2.7-0.9-5.6
		c0.3-0.3,0.6-1,1.1-0.3c0.5,0.5,1,1.2,0.2,1.6c-3.3,1.7-2.5,2.4,0.5,2.9C116,263.1,116.1,263.5,116.2,264.1z"/>
	<path class="st7" d="M113.5,268.1c0,0.6-0.4,0.7-0.6,0.9c-0.5,0.4-1,0.2-1.3-0.2c-1.2-1.6-2.6-4.6-3,0.4c-0.1,0.7-0.8,0.6-1.4,0.4
		c-0.8-0.3-0.6-0.8-0.2-1.3s0.7-1.1,1.1-1.6c0.9-1.4,1.9-1.6,3.2-0.5C111.9,266.9,112.7,267.5,113.5,268.1z"/>
	<path class="st7" d="M104.9,256c1.3,0.2,1.6,1.2,2.1,2.1c0.2,0.3,0.4,0.9,0.9,0.8c0.7-0.1,0.6-0.7,0.7-1.2c0.1-0.6,0.1-1.2,0.3-1.7
		c0.3-0.7,0.9-0.6,1.5-0.4c0.7,0.3,0.5,0.7,0.2,1.2c-0.4,0.5-0.7,1.1-1.1,1.6c-0.9,1.5-2,1.7-3.3,0.5c-0.5-0.5-1.1-0.9-1.7-1.3
		c-0.3-0.2-0.9-0.4-0.6-0.9C104.1,256.4,104.6,256.2,104.9,256z"/>
	<path class="st7" d="M103.2,267.1c-0.3-0.3-0.6-0.6-0.8-1c-0.3-0.6,0.1-0.9,0.5-1.3c0.6-0.6,2.2-0.5,1.9-1.7
		c-0.2-0.8-1.5-0.5-2.3-0.8c-0.6-0.2-1.3-0.4-1.2-1.3c0-0.3,0.1-0.8,0.3-1c0.6-0.4,1,0.3,1.5,0.5c0.3,0.1,0.5,0.3,0.7,0.5
		c2.4,1.5,2.3,4.2-0.2,5.7C103.5,267,103.4,267,103.2,267.1z"/>
	<path class="st8" d="M161.6,262.9c0.8-0.1,1.4-0.3,2-0.2c1.9,0.3,2.3,1.9,2.4,3.4c0,1.7-1.5,1-2.3,1c-6.3,0.1-6.4-0.1-6.3-6.1
		c0-0.8-0.5-2.1,1.1-2c1.4,0.1,3,0.3,3.4,2.1C161.9,261.6,161.7,262.2,161.6,262.9z"/>
	<path class="st8" d="M161,265.9c1,0,1.4,0,1.8,0c0.5,0,1.2,0.1,1.5-0.5c0.1-0.3-0.1-0.7-0.3-1c-0.4-0.7-1.1-0.5-1.7-0.3
		c-0.9,0.2-1.8,1.4-2.5,0.7c-1-0.9,0.5-1.7,0.7-2.6c0-0.2,0.1-0.4,0.1-0.6c-0.1-0.6-0.6-0.8-1.1-0.9c-0.3-0.1-0.8-0.2-0.9,0.3
		c-0.1,1.4-0.4,2.9,0.2,4.2C159.4,266.3,160.6,265.9,161,265.9z"/>
	<path class="st8" d="M152.2,262.7c-0.4-1.4-0.5-2.7,1.3-3.3c2.4-0.9,2.9-0.5,2.9,2c0,5.7-0.1,5.8-5.8,5.8c-0.9,0-2.2,0.6-2.8-0.5
		c-0.5-1,0.2-2.1,0.8-3c0.7-1.1,1.8-1,2.9-0.7c0.1,0,0.3,0.1,0.4,0.1c0.1,0.1,0.3,0.2,0.3,0.2C152.5,263.1,152.4,262.9,152.2,262.7z
		"/>
	<path class="st8" d="M152,265.9c2.9,0.1,3.1-0.2,3.1-2.9c0-0.5,0-1,0-1.5s0-1.1-0.8-1c-0.6,0.1-1.4,0.3-1.2,1.2
		c0.1,0.5,0.4,0.9,0.6,1.4c0.2,0.5,0.8,1,0.3,1.6s-1,0-1.6-0.2c-0.9-0.3-1.8-1.3-2.8-0.3c-0.2,0.2-0.4,0.8-0.3,1
		C150.1,266.4,151.3,265.6,152,265.9z"/>
	<path class="st8" d="M161.1,271.8c1,1.9,1.1,3.2-0.9,3.9c-2.4,0.9-2.9,0.6-2.9-2c0-5.5,0.1-5.6,5.7-5.7c0.1,0,0.1,0,0.2,0
		c0.9,0.2,2.3-0.6,2.8,0.4c0.4,1-0.2,2.3-0.9,3.2c-0.8,1-1.9,0.9-3,0.4C161.9,272,161.7,272,161.1,271.8z"/>
	<path class="st8" d="M161.9,269.3c-2.5-0.1-3,0-3.2,1.2c-0.2,1.1-0.1,2.2,0,3.2c0,0.6,0.3,1,0.9,0.8c0.6-0.1,1.4-0.5,1-1.1
		c-2-3.6-0.5-3.5,2.3-2.3c0.8,0.3,1.4-0.3,1.5-1.1c0.1-1-0.8-0.6-1.2-0.7C162.7,269.3,162.3,269.3,161.9,269.3z"/>
	<path class="st8" d="M152.3,272.1c-3,0.6-4.2-0.2-4.6-2.7c-0.1-0.9,0.1-1.4,1.1-1.3c0.5,0,1,0,1.5,0c6.1,0,6.1,0,6,6.1
		c0,0.8,0.5,2.2-1.2,1.9c-1.4-0.2-3.2-0.2-3.3-2.4C151.9,273.2,152.2,272.7,152.3,272.1z"/>
	<path class="st8" d="M155.1,272.3c0-3-0.3-3.3-3.2-3c-0.4,0-0.7,0-1.1,0.1c-0.6,0.2-1.7-0.5-1.5,0.8c0.2,1.1,1.1,1.2,2,1
		s1.8-1.3,2.5-0.7c0.9,0.8-0.5,1.6-0.7,2.4c-0.1,0.5-0.3,1,0.3,1.3c0.4,0.3,0.8,0.4,1.2,0.3c0.5-0.2,0.4-0.7,0.4-1.1
		C155.1,273,155.1,272.7,155.1,272.3z"/>
	<path class="st6" d="M161,265.9c-0.4,0-1.6,0.4-2.1-0.8c-0.6-1.3-0.3-2.8-0.2-4.2c0-0.5,0.5-0.4,0.9-0.3c0.5,0.2,1,0.3,1.1,0.9
		c0,0.2-0.1,0.4-0.1,0.6c-0.1,0.9-1.6,1.8-0.7,2.6c0.7,0.6,1.6-0.5,2.5-0.7c0.7-0.2,1.3-0.4,1.7,0.3c0.2,0.3,0.4,0.7,0.3,1
		c-0.3,0.7-1,0.5-1.5,0.5C162.4,265.9,162,265.9,161,265.9z"/>
	<path class="st6" d="M152,265.9c-0.7-0.3-1.9,0.5-2.6-0.7c-0.1-0.2,0.1-0.8,0.3-1c1-1,1.9,0,2.8,0.3c0.5,0.2,1,0.8,1.6,0.2
		c0.5-0.6-0.1-1.1-0.3-1.6s-0.5-0.9-0.6-1.4c-0.1-0.9,0.6-1.1,1.2-1.2c0.8-0.2,0.7,0.5,0.8,1c0,0.5,0,1,0,1.5
		C155.1,265.8,154.9,266,152,265.9z"/>
	<path class="st6" d="M152.2,262.7c0.1,0.2,0.3,0.3,0,0.5c-0.1,0-0.2-0.1-0.3-0.2C152,262.9,152.1,262.8,152.2,262.7z"/>
	<path class="st6" d="M161.9,269.3c0.4,0,0.9,0,1.3,0.1c0.5,0.1,1.3-0.3,1.2,0.7c-0.1,0.8-0.7,1.4-1.5,1.1c-2.8-1.2-4.3-1.4-2.3,2.3
		c0.3,0.6-0.4,1-1,1.1c-0.7,0.2-0.9-0.2-0.9-0.8c0-1.1-0.1-2.2,0-3.2C158.9,269.3,159.4,269.2,161.9,269.3z"/>
	<path class="st6" d="M155.1,272.3c0,0.4,0,0.7,0,1.1s0.1,0.9-0.4,1.1c-0.4,0.2-0.8,0-1.2-0.3c-0.5-0.4-0.4-0.8-0.3-1.3
		c0.2-0.8,1.6-1.6,0.7-2.4c-0.7-0.7-1.7,0.5-2.5,0.7c-1,0.2-1.9,0.2-2-1c-0.2-1.3,1-0.6,1.5-0.8c0.3-0.1,0.7-0.1,1.1-0.1
		C154.8,269,155.1,269.3,155.1,272.3z"/>
</g>
</svg>
